<?xml version="1.0" encoding="UTF-8"?>
<svg version="1.1" xmlns="http://www.w3.org/2000/svg" width="2048" height="2048">
<path d="M0 0 C675.84 0 1351.68 0 2048 0 C2048 675.84 2048 1351.68 2048 2048 C1372.16 2048 696.32 2048 0 2048 C0 1372.16 0 696.32 0 0 Z " fill="#FEFEFE" transform="translate(0,0)"/>
<path d="M0 0 C3.33151779 0.00462508 6.66266988 -0.00228921 9.99414062 -0.02050781 C30.9744639 -0.13413489 51.56688972 0.58369501 72.42602539 2.93408203 C76.82270132 3.4279734 81.2236309 3.87568248 85.62527466 4.32275391 C111.51836586 7.06370836 137.29602172 11.55800037 162.62133789 17.56567383 C165.93946956 18.34295768 169.26424521 19.08315565 172.5925293 19.81567383 C174.83606151 20.3154825 177.0795525 20.81547628 179.32299805 21.31567383 C180.78902466 21.6347168 180.78902466 21.6347168 182.28466797 21.96020508 C198.71822018 25.68810482 214.70065951 31.51515827 230.63549805 36.94067383 C231.51708588 37.2408139 232.39867371 37.54095398 233.30697632 37.85018921 C256.63489343 45.8193958 279.51752774 54.79318181 301.82299805 65.31567383 C302.91435059 65.82855957 304.00570312 66.34144531 305.13012695 66.86987305 C325.93734628 76.68299609 346.33643361 87.1034953 365.94506836 99.16625977 C367.9570193 100.39770348 369.97897236 101.6114772 372.00268555 102.82348633 C409.79096035 125.54261124 444.84912534 152.09658994 477.82299805 181.31567383 C478.86520508 182.23606445 478.86520508 182.23606445 479.9284668 183.17504883 C491.57732851 193.55560901 502.89569155 204.30360187 513.94799805 215.31567383 C514.63385986 215.99694336 515.31972168 216.67821289 516.02636719 217.38012695 C519.92515511 221.29086115 523.63942436 225.30641777 527.22680664 229.50512695 C528.85733791 231.35462525 530.56288667 233.08975446 532.32299805 234.81567383 C536.03496365 238.47847432 539.43200543 242.35632275 542.82299805 246.31567383 C543.75375371 247.39400078 544.68476342 248.47210848 545.6159668 249.55004883 C560.24224162 266.51022867 573.83057721 284.08289078 586.82299805 302.31567383 C587.40130371 303.12488281 587.97960938 303.9340918 588.57543945 304.76782227 C601.61152325 323.0449953 613.42142121 341.9845131 624.82299805 361.31567383 C625.5495459 362.54012207 625.5495459 362.54012207 626.29077148 363.78930664 C651.37987234 406.20781985 672.11302898 452.77101895 686.13305664 500.03881836 C686.80237086 502.24760264 687.5153645 504.43602181 688.2487793 506.62426758 C700.6393215 543.80008443 708.908181 582.98172172 713.41821289 621.87573242 C713.78098063 624.95860178 714.16852927 628.03741551 714.56500244 631.11610413 C718.17225182 659.30312686 719.12250985 687.36074686 719.13396454 715.74710083 C719.13547584 718.09369979 719.14038027 720.44027245 719.14581299 722.78686523 C719.17920123 742.05324654 718.60573351 761.11619854 716.82299805 780.31567383 C716.74983368 781.1409256 716.67666931 781.96617737 716.60128784 782.81643677 C716.16844689 787.69780952 715.67915696 792.57042927 715.13549805 797.44067383 C715.05407562 798.17282104 714.9726532 798.90496826 714.88876343 799.65930176 C710.34210462 839.89331501 702.58953167 880.2982991 690.54125977 918.97680664 C689.48810352 922.40618694 688.53314864 925.85913168 687.57299805 929.31567383 C686.42140384 933.37065174 685.14956684 937.29397618 683.59643555 941.21020508 C682.22740372 944.93701395 681.17767428 948.76697989 680.08081055 952.58129883 C678.64714163 956.83778169 676.92734082 960.92349208 675.17895508 965.05883789 C673.83886399 968.27756586 672.56600131 971.51442941 671.31518555 974.76879883 C665.76810691 989.1954256 659.86393679 1003.35219792 653.2409668 1017.32397461 C651.7788157 1020.40889189 650.33212899 1023.50079623 648.88549805 1026.59301758 C642.35951306 1040.45566891 635.35944339 1053.97699033 627.82299805 1067.31567383 C627.2202002 1068.3855957 626.61740234 1069.45551758 625.99633789 1070.55786133 C618.70433717 1083.46181561 611.25609614 1096.12615101 602.82299805 1108.31567383 C601.52824167 1110.27196577 600.23649857 1112.23025586 598.94799805 1114.19067383 C589.479339 1128.35578777 579.40432763 1141.96409573 568.82299805 1155.31567383 C568.04827148 1156.29536133 567.27354492 1157.27504883 566.4753418 1158.28442383 C564.60250691 1160.63756826 562.71689767 1162.97946219 560.82299805 1165.31567383 C560.14366211 1166.15743164 559.46432617 1166.99918945 558.7644043 1167.86645508 C549.99603703 1178.66670781 540.96157046 1189.21153545 531.4909668 1199.40161133 C529.50147008 1201.57461945 527.56706007 1203.76757442 525.64624023 1205.99951172 C521.91902683 1210.26404155 517.99284188 1214.29053514 513.9831543 1218.28833008 C513.25736679 1219.01507431 512.53157928 1219.74181854 511.78379822 1220.49058533 C510.25976249 1222.01529679 508.73448235 1223.53876533 507.20800781 1225.06103516 C504.89167341 1227.37201274 502.58072727 1229.68828154 500.27026367 1232.00512695 C498.77904771 1233.49568203 497.28752152 1234.98592683 495.7956543 1236.47583008 C495.11519547 1237.15831314 494.43473663 1237.8407962 493.73365784 1238.54396057 C489.79575571 1242.46298398 485.75435132 1246.205681 481.54486084 1249.83192444 C479.32762811 1251.74253992 477.1706184 1253.71592283 475.01049805 1255.69067383 C469.76442945 1260.42336568 464.31521977 1264.87366448 458.82299805 1269.31567383 C457.13545023 1270.71144936 455.44795111 1272.10728375 453.76049805 1273.50317383 C388.4358255 1326.84081543 313.49458201 1368.13627089 185.28759766 1410.72436523 C182.12775225 1411.48247772 179.00339722 1412.35373329 175.86987305 1413.21411133 C167.44996609 1415.50048911 158.93869307 1417.23549291 150.38549805 1418.94067383 C148.14306527 1419.39095569 145.90092486 1419.84261659 143.65916443 1420.29623413 C141.6447451 1420.70339165 139.62952744 1421.10659371 137.61425781 1421.50952148 C135.01656104 1422.06188125 132.48033113 1422.6548318 129.91625977 1423.32714844 C125.52907577 1424.44071735 121.12032236 1425.10362606 116.6394043 1425.71801758 C115.76540985 1425.8404332 114.89141541 1425.96284882 113.99093628 1426.088974 C77.08025491 1431.19742203 40.8456328 1433.57796683 3.59996414 1433.62485504 C1.93167619 1433.62704608 0.2633891 1433.63005587 -1.40489578 1433.63393402 C-39.66563795 1433.7223135 -77.41416557 1431.14788475 -115.17700195 1424.75317383 C-115.91301636 1424.62861816 -116.64903076 1424.5040625 -117.40734863 1424.37573242 C-135.49108647 1421.28232208 -153.32028365 1417.15145778 -171.13983154 1412.81048584 C-172.97354426 1412.36509204 -174.8088236 1411.92616 -176.64428711 1411.48803711 C-192.31885422 1407.7342654 -207.51419188 1402.6881185 -222.74926758 1397.47485352 C-225.70102873 1396.47663685 -228.65896338 1395.51192554 -231.63012695 1394.57348633 C-317.64311903 1367.30045676 -398.03861359 1316.95348535 -482.50268555 1242.87670898 C-484.2484251 1241.24908304 -486.00295385 1239.63135348 -487.7590332 1238.01489258 C-494.51866694 1231.77612103 -501.15980442 1225.43278475 -507.67700195 1218.94067383 C-508.64633667 1217.97822754 -508.64633667 1217.97822754 -509.63525391 1216.99633789 C-513.38082777 1213.23863929 -516.9236498 1209.36180401 -520.39086914 1205.34692383 C-523.5079288 1201.80209929 -526.79273126 1198.41667611 -530.05200195 1195.00317383 C-536.07426623 1188.64906064 -541.74972763 1182.18738907 -547.17700195 1175.31567383 C-548.63283331 1173.54278301 -550.09124037 1171.77200463 -551.55200195 1170.00317383 C-556.39586865 1164.08102029 -561.12814763 1158.07512455 -565.83032227 1152.0402832 C-567.08371371 1150.43514231 -568.34489485 1148.83609247 -569.60668945 1147.23754883 C-577.18967735 1137.54126923 -584.20792806 1127.45915357 -591.17700195 1117.31567383 C-591.86560303 1116.31383057 -591.86560303 1116.31383057 -592.56811523 1115.29174805 C-625.87382118 1066.60826329 -651.96287011 1014.16384807 -672.11102295 958.83085632 C-673.24917862 955.72324501 -674.44260516 952.65760882 -675.76660156 949.62548828 C-676.87641445 947.02106845 -677.79039351 944.56668133 -678.53637695 941.84692383 C-678.76123779 941.04125977 -678.98609863 940.2355957 -679.21777344 939.40551758 C-679.45181885 938.55086914 -679.68586426 937.6962207 -679.92700195 936.81567383 C-681.7668352 930.21108469 -683.68005845 923.64321842 -685.74047852 917.10400391 C-693.50811141 892.3235192 -698.63362608 866.97537202 -703.39379883 841.48095703 C-703.90704077 838.73436823 -704.4348813 835.99126209 -704.97583008 833.25 C-706.79452096 823.9617161 -708.14294769 814.66199328 -709.17700195 805.25317383 C-709.2593811 804.50569885 -709.34176025 803.75822388 -709.42663574 802.98809814 C-709.94843065 798.21271398 -710.44756892 793.43525966 -710.93554688 788.65631104 C-711.16629745 786.41944204 -711.40592567 784.18369807 -711.64770508 781.94799805 C-717.83606466 723.84169654 -716.21959338 662.84965287 -706.17700195 605.31567383 C-705.97671387 604.14681641 -705.77642578 602.97795898 -705.57006836 601.77368164 C-702.31403307 582.90761589 -698.57873707 564.25451114 -693.9987793 545.65942383 C-693.25722131 542.64208032 -692.53737645 539.62044073 -691.8215332 536.59692383 C-687.97170934 520.74914667 -682.69471009 505.36351943 -677.42655945 489.94329834 C-676.15835702 486.22842903 -674.9082888 482.50918775 -673.69458008 478.77612305 C-670.40997672 468.69537158 -666.75391587 458.85202279 -662.67700195 449.06567383 C-662.23112732 447.988647 -662.23112732 447.988647 -661.77624512 446.88986206 C-652.64406301 424.86513426 -642.64862779 403.22612962 -631.17700195 382.31567383 C-630.61899902 381.28877441 -630.06099609 380.261875 -629.48608398 379.20385742 C-621.96727081 365.37971674 -614.21150928 351.78598955 -605.63745117 338.58374023 C-604.1087253 336.2096407 -602.61024213 333.81858074 -601.1184082 331.42114258 C-593.10751085 318.55611984 -584.51611433 306.32055547 -575.3762207 294.22973633 C-573.93141283 292.31530174 -572.49618006 290.39359595 -571.0715332 288.46411133 C-558.98180073 272.12425432 -545.82877271 256.56769091 -532.16918945 241.52270508 C-530.41506814 239.57941382 -528.69727501 237.61207935 -526.98950195 235.62817383 C-518.29392636 225.68186476 -509.12573196 216.17125179 -499.80200195 206.81567383 C-499.06554443 206.07462402 -498.32908691 205.33357422 -497.5703125 204.57006836 C-493.53214677 200.54327775 -489.39914547 196.69532627 -485.0793457 192.97290039 C-482.0984627 190.37610446 -479.2398745 187.65296059 -476.36450195 184.94067383 C-471.41259037 180.30647193 -466.35180897 175.90400066 -461.05200195 171.66723633 C-458.94674572 169.94527403 -456.8974759 168.20494315 -454.86450195 166.40161133 C-445.42021446 158.02453351 -435.53010422 150.41667649 -425.36547852 142.93432617 C-422.67580009 140.94497232 -420.02116122 138.91133143 -417.36450195 136.87817383 C-402.80329682 125.97276062 -387.7512435 115.71543767 -372.17700195 106.31567383 C-370.9854112 105.58811133 -369.79400423 104.86024776 -368.6027832 104.13208008 C-364.81388643 101.82626576 -360.99855606 99.56683771 -357.17700195 97.31567383 C-356.46108887 96.89125 -355.74517578 96.46682617 -355.00756836 96.02954102 C-280.59288719 52.07244299 -197.29319154 22.2147634 -111.92993164 8.7565918 C-109.44859182 8.35917252 -106.97279396 7.9392473 -104.49731445 7.50708008 C-94.92864666 5.86371068 -85.33596113 4.7304726 -75.67700195 3.75317383 C-74.54633301 3.6383667 -73.41566406 3.52355957 -72.25073242 3.40527344 C-69.02714537 3.09268991 -65.802449 2.80158751 -62.57559204 2.52493286 C-60.87391539 2.37647431 -59.17276368 2.22194251 -57.47201538 2.0632019 C-38.29973376 0.29270191 -19.23796739 -0.02894578 0 0 Z " fill="#FEFEFE" transform="translate(1022.177001953125,306.684326171875)"/>
<path d="M0 0 C0.89609321 -0.00530365 1.79218641 -0.01060731 2.71543396 -0.01607168 C5.74581227 -0.03150287 8.77602912 -0.03257772 11.80644417 -0.03377151 C13.99004052 -0.04179784 16.17363388 -0.05067379 18.35722363 -0.06033063 C24.37958117 -0.0843067 30.40190663 -0.09556885 36.42430258 -0.10469294 C42.91128813 -0.1165885 49.39823516 -0.13981251 55.88519478 -0.16127396 C70.82243182 -0.2086339 85.75968412 -0.23714417 100.6969737 -0.26173279 C105.86553944 -0.27024159 111.03410375 -0.27937304 116.20266771 -0.28889942 C143.68462896 -0.33942486 171.1665926 -0.38352083 198.64859009 -0.40835571 C205.01713635 -0.41419838 211.38568251 -0.42013341 217.75422859 -0.42616653 C218.54544154 -0.42690835 219.33665448 -0.42765017 220.15184357 -0.42841447 C245.79552271 -0.45271673 271.43892704 -0.51458826 297.08247714 -0.59800958 C323.44618429 -0.68361713 349.80974634 -0.736842 376.17359624 -0.74730514 C379.89876818 -0.748786 383.62393988 -0.75060736 387.34911156 -0.7526207 C388.08224846 -0.75300193 388.81538537 -0.75338316 389.57073854 -0.75377594 C401.36123681 -0.76079839 413.15139061 -0.80137246 424.94176246 -0.85421397 C436.79912799 -0.90655328 448.65606187 -0.92110991 460.5135266 -0.90001139 C466.93567033 -0.88963379 473.35672055 -0.89543701 479.7787056 -0.94494247 C485.66175928 -0.98991456 491.54293371 -0.98846223 497.42602016 -0.95053473 C499.55066881 -0.94493245 501.67544469 -0.95614581 503.79988872 -0.98616061 C515.90276815 -1.14665542 523.77486444 -0.51154592 532.93649876 7.83325839 C533.74098828 8.63871262 534.54547779 9.44416685 535.37434578 10.27402878 C536.58278454 11.29675512 537.79952152 12.30991474 539.03059578 13.30527878 C539.96903328 14.11996628 540.90747078 14.93465378 541.87434578 15.77402878 C546.10944707 19.41445773 550.42224914 22.90268746 554.87434578 26.27402878 C559.30218855 29.62829407 563.59410932 33.09659948 567.81184578 36.71152878 C572.16980411 40.44589337 576.59373021 44.06357352 581.12434578 47.58652878 C588.59643206 53.40233397 595.89154133 59.42322288 603.18342781 65.46250534 C605.37748223 67.2766221 607.57620119 69.08491086 609.77668953 70.89121628 C616.84066303 76.69086093 623.87573649 82.51887839 630.83967781 88.43833542 C635.96154368 92.78667855 641.16190977 97.03509185 646.37434578 101.27402878 C650.04429696 104.27002287 653.71015368 107.27099601 657.37434578 110.27402878 C658.0383741 110.81785202 658.70240242 111.36167526 659.38655281 111.921978 C661.61284483 113.74621056 663.83748377 115.57244355 666.06184578 117.39902878 C666.76261238 117.97290329 667.46337898 118.5467778 668.18538094 119.13804245 C669.57114816 120.27720114 670.94305478 121.43342934 672.30061531 122.60606003 C674.32841602 124.32787258 674.32841602 124.32787258 676.647295 125.56699753 C679.83739364 127.60072967 681.95341251 129.37669314 682.80241585 133.20353317 C683.39794104 138.23077615 683.33864034 143.24675213 683.19758797 148.29990768 C683.12415653 151.03106746 683.11555212 153.75682479 683.11653328 156.48887253 C683.09688236 158.22459661 683.07357325 159.96028398 683.04622078 161.69590378 C683.04176949 162.51153793 683.03731819 163.32717209 683.03273201 164.16752243 C682.84304238 169.8017686 682.84304238 169.8017686 680.67048836 171.99084091 C677.90767265 173.53482674 676.2086935 173.63713126 673.05500984 173.61460495 C671.99421211 173.61437836 670.93341438 173.61415176 669.84047127 173.6139183 C668.70180611 173.59843445 667.56314095 173.58295059 666.38997078 173.56699753 C665.21924019 173.56275269 664.0485096 173.55850784 662.84230232 173.55413437 C659.10274962 173.53734053 655.36373563 173.49968582 651.62434578 173.46152878 C649.08919731 173.44648291 646.5540404 173.43279433 644.01887703 173.42051315 C637.80384945 173.38743462 631.5891361 173.33722761 625.37434578 173.27402878 C625.40052986 173.91429001 625.42671394 174.55455124 625.45369148 175.21421432 C625.55795859 178.1297338 625.62276331 181.04486076 625.68684578 183.96152878 C625.72874031 184.96893112 625.77063484 185.97633347 625.8137989 187.01426315 C625.88846981 191.53931985 625.8179966 194.46997287 623.60481453 198.48106003 C620.37434578 200.27402878 620.37434578 200.27402878 608.37434578 200.27402878 C608.37434578 276.83402878 608.37434578 353.39402878 608.37434578 432.27402878 C614.64434578 432.27402878 620.91434578 432.27402878 627.37434578 432.27402878 C630.59166429 435.49134728 630.72682662 436.24256303 630.79203987 440.55283737 C630.78753822 441.26512497 630.78303658 441.97741257 630.77839851 442.71128464 C630.78869339 443.84347176 630.78869339 443.84347176 630.79919624 444.99853134 C630.81750904 447.49550269 630.81362043 449.99184838 630.80793953 452.48887253 C630.81249935 454.22378367 630.81780433 455.95869301 630.82382393 457.6935997 C630.83276393 461.3310797 630.83032205 464.96834026 630.8203907 468.60581589 C630.80890254 473.26787242 630.82910525 477.92917137 630.85830784 482.59112835 C630.87665265 486.17451415 630.8763808 489.75771787 630.87067032 493.34113884 C630.87051688 495.05994415 630.87658004 496.77876163 630.88896179 498.49752235 C630.90383726 500.90129117 630.89322137 503.30365364 630.87605476 505.70737839 C630.88572273 506.41764175 630.8953907 507.12790512 630.90535164 507.85969162 C630.85756593 511.05443443 630.66415769 512.90097161 628.67882646 515.45656726 C625.87323679 517.66923552 624.53972176 517.77441417 621.00144953 517.77542543 C619.90239854 517.78543951 618.80334755 517.79545358 617.67099199 517.80577111 C616.4614507 517.79640645 615.25190942 517.78704178 614.00571537 517.77739334 C612.71714641 517.7832071 611.42857745 517.78902087 610.10096094 517.79501081 C606.50554562 517.8106551 602.9105572 517.80123231 599.31514846 517.78789899 C595.41079016 517.77778839 591.50649935 517.79077737 587.6021505 517.80087233 C580.75313033 517.81535093 573.90423617 517.81486141 567.05521011 517.80468369 C556.87076285 517.78959041 546.68642241 517.79726951 536.50197592 517.80951691 C518.31578189 517.83061175 500.12964397 517.82874172 481.94344456 517.81720126 C466.02933874 517.80715179 450.11525352 517.80450628 434.20114517 517.80929184 C433.14684561 517.80959738 432.09254604 517.80990292 431.006298 517.81021772 C426.72691007 517.81146301 422.44752215 517.8127366 418.16813424 517.81405677 C377.9989175 517.82630133 337.82973656 517.81518522 297.66052534 517.79366919 C261.94540269 517.77468444 226.23033708 517.77638544 190.51521492 517.79551315 C150.41947064 517.81691501 110.32375801 517.82543444 70.22800881 517.8130641 C65.95658275 517.81178116 61.68515669 517.81052981 57.41373062 517.80929184 C56.36194138 517.80897553 55.31015213 517.80865922 54.22649048 517.80833333 C38.31877573 517.80377668 22.41108379 517.80911706 6.50337219 517.81921005 C-11.5772476 517.83062426 -29.65780235 517.82783662 -47.738414 517.80608708 C-57.86696942 517.79430632 -67.99538414 517.79362624 -78.12393603 517.80867177 C-84.87904524 517.81760261 -91.63404099 517.81212973 -98.38913331 517.7946527 C-102.24488455 517.78508528 -106.10035507 517.78199113 -109.95609803 517.79627663 C-114.09859098 517.81146897 -118.24038687 517.79610447 -122.38286495 517.77739334 C-123.5947474 517.78675801 -124.80662985 517.79612267 -126.05523601 517.80577111 C-127.15178348 517.79575704 -128.24833095 517.78574296 -129.37810713 517.77542543 C-130.80047784 517.77501888 -130.80047784 517.77501888 -132.25158331 517.77460411 C-134.62565422 517.27402878 -134.62565422 517.27402878 -136.42981648 515.45656726 C-138.16827571 512.28368347 -138.04398425 509.23331144 -138.01383781 505.70737839 C-138.01909477 504.95083466 -138.02435173 504.19429092 -138.02976799 503.41482162 C-138.04295333 500.91846086 -138.03423628 498.42273958 -138.02409172 495.92637253 C-138.02611267 494.19049584 -138.02902429 492.45461997 -138.03278923 490.71874619 C-138.03721041 487.08303865 -138.03078744 483.44755238 -138.0167675 479.81187057 C-137.99966291 475.14873012 -138.00952602 470.48610718 -138.02748489 465.82298565 C-138.03831748 462.23965163 -138.03487905 458.65644064 -138.02710152 455.07310295 C-138.02509871 453.35348131 -138.02756161 451.63384853 -138.03454018 449.91423988 C-138.04214755 447.51295301 -138.03056182 445.11250865 -138.01383781 442.71128464 C-138.02294685 441.64285324 -138.02294685 441.64285324 -138.03223991 440.55283737 C-137.97650508 436.23972388 -137.84553382 435.49390838 -134.62565422 432.27402878 C-128.02565422 432.27402878 -121.42565422 432.27402878 -114.62565422 432.27402878 C-114.62565422 355.71402878 -114.62565422 279.15402878 -114.62565422 200.27402878 C-118.58565422 200.27402878 -122.54565422 200.27402878 -126.62565422 200.27402878 C-129.85612297 198.51231003 -129.85612297 198.51231003 -131.62565422 195.27402878 C-132.19007753 191.30950137 -132.09673364 187.4552905 -131.93815422 183.46152878 C-131.91559563 182.38709518 -131.89303703 181.31266159 -131.86979485 180.2056694 C-131.8110102 177.56036028 -131.72889379 174.91791465 -131.62565422 172.27402878 C-132.25792427 172.28291122 -132.89019432 172.29179367 -133.54162407 172.30094528 C-140.11112761 172.3893102 -146.68046289 172.44971789 -153.25041008 172.49375534 C-155.70360481 172.51389411 -158.15675141 172.54120696 -160.60978508 172.57578659 C-164.13212255 172.6242036 -167.65382645 172.64697507 -171.17643547 172.66465378 C-172.8265538 172.69562149 -172.8265538 172.69562149 -174.51000786 172.72721481 C-175.53083961 172.72751694 -176.55167137 172.72781906 -177.60343742 172.72813034 C-178.50278511 172.73701279 -179.4021328 172.74589523 -180.32873344 172.75504684 C-182.62565422 172.27402878 -182.62565422 172.27402878 -184.40734673 170.47738266 C-186.24106423 167.16103716 -186.21267903 163.81013968 -186.30534172 160.10606003 C-186.32718529 159.31181122 -186.34902885 158.51756241 -186.37153435 157.69924545 C-186.40858231 156.01918504 -186.43660122 154.33890457 -186.45622063 152.65855026 C-186.50026972 150.1087856 -186.61897033 147.56923676 -186.73893547 145.02207565 C-187.04487917 133.17286246 -187.04487917 133.17286246 -183.3983593 128.29404831 C-180.59035975 125.97043779 -177.77214266 124.10649775 -174.62565422 122.27402878 C-173.229227 121.27179425 -171.84124715 120.25758923 -170.46549797 119.22715378 C-169.16744675 118.32218363 -167.86662434 117.42117625 -166.56315422 116.52402878 C-165.09773306 115.50141822 -163.63290997 114.4779502 -162.16862297 113.45371628 C-161.42402824 112.93390182 -160.67943352 112.41408737 -159.91227531 111.87852097 C-149.6423749 104.67226584 -139.5208866 97.27853749 -129.61002922 89.58652878 C-116.81636721 79.67311528 -103.68605567 70.18700745 -90.63737297 60.61387253 C-83.75356802 55.55927303 -76.87729602 50.50441458 -70.12565422 45.27402878 C-62.55924616 39.41245697 -54.83637103 33.7669579 -47.11930656 28.10606003 C-44.63511231 26.28097743 -42.15507692 24.45039395 -39.67643547 22.61777878 C-9.04283144 -0.02577926 -9.04283144 -0.02577926 0 0 Z " fill="#0C0D0D" transform="translate(775.625654220581,799.7259712219238)"/>
<path d="M0 0 C121.77 0 243.54 0 369 0 C369 76.56 369 153.12 369 232 C247.23 232 125.46 232 0 232 C0 155.44 0 78.88 0 0 Z " fill="#FDFDFD" transform="translate(704,1000)"/>
<path d="M0 0 C0.88805584 -0.01051822 1.77611168 -0.02103645 2.69107831 -0.0318734 C5.66454094 -0.05976878 8.63623466 -0.04506135 11.60976982 -0.03046989 C13.76398174 -0.04168133 15.91818146 -0.05548668 18.07236183 -0.07166183 C23.99042168 -0.10837611 29.90797309 -0.10756785 35.82612085 -0.10049558 C42.20948224 -0.09927165 48.59268018 -0.13238299 54.9759655 -0.16084099 C67.48190352 -0.2106879 79.98766656 -0.22724816 92.49369521 -0.23051526 C102.65979012 -0.23327369 112.82583008 -0.24562981 122.99190712 -0.26471901 C125.91940393 -0.27010439 128.84690081 -0.27544327 131.77439773 -0.28076828 C132.8661165 -0.28275771 132.8661165 -0.28275771 133.9798902 -0.28478733 C154.45016042 -0.32170904 174.92041157 -0.34539111 195.39071655 -0.34272766 C196.54819865 -0.34258745 196.54819865 -0.34258745 197.72906422 -0.34244441 C201.64002141 -0.34194578 205.55097859 -0.34135153 209.46193577 -0.34073617 C210.23864774 -0.34061649 211.0153597 -0.34049682 211.81560839 -0.34037353 C213.38630979 -0.3401309 214.95701118 -0.33988011 216.52771257 -0.33962118 C240.95883356 -0.33594562 265.38945469 -0.38096704 289.82043266 -0.46305656 C317.27725207 -0.55527537 344.73374308 -0.60685061 372.19072711 -0.60127723 C375.12011011 -0.60082946 378.04949309 -0.60053721 380.97887611 -0.60035133 C382.06078378 -0.60024644 382.06078378 -0.60024644 383.16454816 -0.60013944 C394.75841039 -0.599955 406.35183778 -0.63822653 417.94557083 -0.68994492 C429.6041926 -0.74087595 441.26203825 -0.74566214 452.92072602 -0.707289 C459.23382019 -0.68769862 465.54534316 -0.68734537 471.85828781 -0.73940849 C477.64285098 -0.7866227 483.42459851 -0.77800026 489.2090932 -0.7257037 C491.29658512 -0.71649739 493.3842875 -0.72738019 495.47153117 -0.76086415 C506.01296526 -0.91871297 513.83029701 -0.68821655 521.92885971 6.62233353 C523.50759749 8.16552266 525.03336166 9.73805285 526.53269742 11.35828592 C528.42653723 13.33517089 530.52860235 14.98526555 532.69933891 16.64680672 C537.2333868 20.22788559 541.68616923 23.90068829 546.13683891 27.58430672 C552.00196011 32.43361577 557.92485408 37.19284952 563.9288311 41.86873055 C568.65075771 45.55697114 573.24183034 49.38895091 577.82824516 53.24446297 C581.11533538 55.96061542 584.45939502 58.59094675 587.82433891 61.20930672 C594.11073931 66.10936905 600.21050564 71.20083502 606.2647686 76.38362312 C613.51914472 82.59198896 620.80269936 88.74582954 628.28918266 94.67415047 C631.95419467 97.63371655 635.52947332 100.69547269 639.11218071 103.75374031 C643.10219042 107.14581491 647.18553459 110.38554961 651.37512016 113.52961922 C651.87398735 113.93954109 652.37285454 114.34946297 652.88683891 114.77180672 C652.88683891 115.10180672 652.88683891 115.43180672 652.88683891 115.77180672 C383.60683891 115.77180672 114.32683891 115.77180672 -163.11316109 115.77180672 C-159.8349898 112.49363543 -156.94286364 110.13373382 -153.17566109 107.52180672 C-146.95046044 103.15461224 -140.89446725 98.58980048 -134.86316109 93.95930672 C-127.51501123 88.32497639 -120.09553848 82.81586064 -112.56897163 77.42268562 C-107.06398587 73.47386877 -101.63053261 69.43937911 -96.22131538 65.3606739 C-91.04532608 61.46096468 -85.83521767 57.60956474 -80.61316109 53.77180672 C-74.75774217 49.46733652 -68.92011814 45.14144153 -63.11316109 40.77180672 C-54.97932607 34.65333601 -46.78514685 28.61814696 -38.58484077 22.58918953 C-34.36363152 19.48540825 -30.14452101 16.3787802 -25.92566109 13.27180672 C-25.16019966 12.70864754 -24.39473824 12.14548836 -23.60608101 11.56526375 C-22.87236275 11.02498543 -22.13864449 10.48470711 -21.38269234 9.92805672 C-20.74952095 9.46206062 -20.11634956 8.99606453 -19.46399117 8.51594734 C-17.18444792 6.87436089 -17.18444792 6.87436089 -15.45397241 5.31611431 C-10.28543662 0.99119818 -6.65744027 -0.10085191 0 0 Z " fill="#FEFEFE" transform="translate(780.1131610870361,812.228193283081)"/>
<path d="M0 0 C1.46959782 0.1316534 2.93933336 0.2617756 4.40917969 0.390625 C51.2358385 4.50990375 98.98856404 11.94138797 143.73046875 26.63671875 C147.59659714 27.8972062 151.49388836 28.94206634 155.4375 29.9375 C168.14152571 33.23367964 180.41609451 37.97295309 192.64355469 42.70336914 C195.89488701 43.95939373 199.15204434 45.19918894 202.41015625 46.4375 C218.27176539 52.52060909 233.64535061 59.25612515 248.98144531 66.56640625 C251.60265791 67.81129143 254.23086931 69.03753971 256.8671875 70.25 C309.14673049 94.32704123 358.84326422 127.15446146 403 164 C404.74956648 165.41720203 406.49958413 166.83384722 408.25 168.25 C417.5174514 175.8421302 426.81509073 183.50534397 435.13769531 192.13867188 C436.79425219 193.79436009 438.48642214 195.29156557 440.28125 196.79296875 C446.49159347 202.18904018 452.2312062 208.08251115 458.03637695 213.90600586 C460.05764268 215.9326298 462.08419574 217.95385547 464.11132812 219.97460938 C470.28896656 226.1490616 476.34776313 232.33530178 482 239 C483.77362033 240.95477176 485.57586054 242.88099142 487.375 244.8125 C491.66430703 249.45557189 495.72678619 254.23441617 499.69140625 259.16015625 C501.77097964 261.71827783 503.89066009 264.23161081 506.03466797 266.73535156 C516.7648038 279.27687475 526.42986721 292.56469093 536 306 C536.56235352 306.78793945 537.12470703 307.57587891 537.70410156 308.38769531 C573.04011198 358.01148151 602.05595772 411.45932084 623.9375 468.3125 C624.42242416 469.57164719 624.42242416 469.57164719 624.91714478 470.85623169 C628.14329393 479.25483513 631.30913624 487.65281341 634.08959961 496.21166992 C635.06072157 499.18597508 636.08301126 502.13943975 637.11328125 505.09375 C642.3201406 520.18519476 646.58479628 535.33863192 650.25268555 550.87329102 C650.97849485 553.91002402 651.74068275 556.93541318 652.51171875 559.9609375 C654.1531769 566.50263101 655.57019165 573.08363422 656.9375 579.6875 C657.19692383 580.93901855 657.45634766 582.19053711 657.72363281 583.47998047 C660.00959921 594.69877841 661.8536348 605.96211409 663.56445312 617.28051758 C663.98785511 619.92416931 664.47814514 622.54688232 664.984375 625.17578125 C676.98521833 690.31330658 675.27794498 761.29708674 666.00505066 826.61882019 C665.22623246 832.12977864 664.60461186 837.61032268 664.30859375 843.171875 C663.95366556 846.42463463 663.3241713 849.56195051 662.66235352 852.76513672 C661.99878631 856.00592752 661.36410618 859.25125024 660.7348175 862.49882507 C657.19570731 880.74638008 653.59639448 898.87718934 648.58544922 916.78759766 C648.00258332 918.99023767 647.51479881 921.19614641 647.046875 923.42578125 C645.91740893 928.6462851 644.28216347 933.67668015 642.625 938.75 C641.99294495 940.70685542 641.3614312 942.66388576 640.73046875 944.62109375 C640.42931152 945.5529248 640.1281543 946.48475586 639.81787109 947.44482422 C638.82176799 950.55682872 637.87531689 953.68248666 636.9375 956.8125 C634.5452297 964.63064293 631.78346035 972.31437896 629 980 C628.77086914 980.63744141 628.54173828 981.27488281 628.30566406 981.93164062 C617.72526756 1011.26191249 605.13957985 1040.47885825 590.16357422 1067.84472656 C588.97527975 1070.045789 587.82841831 1072.26423901 586.69140625 1074.4921875 C573.60763198 1100.05490983 558.35089394 1125.0439628 541.32763672 1148.18505859 C539.82060753 1150.24523788 538.3333163 1152.31889146 536.84765625 1154.39453125 C524.39621134 1171.77570203 511.53220667 1188.94900515 497.046875 1204.703125 C494.90589123 1207.10560298 492.91932929 1209.59010207 490.9375 1212.125 C487.83321948 1216.06694352 484.51850371 1219.5899557 480.921875 1223.08203125 C479.07581498 1224.92433911 477.37826588 1226.8278629 475.6875 1228.8125 C472.33632894 1232.71580908 468.71613543 1236.31717022 465.05419922 1239.92407227 C462.34675622 1242.60586776 459.77489948 1245.34245279 457.3125 1248.25 C454.52360543 1251.51360003 451.50584282 1254.24892769 448.234375 1257.01953125 C445.54353947 1259.40459001 443.02203721 1261.93993344 440.5 1264.5 C436.81886624 1268.22630104 433.06702256 1271.79858462 429.08203125 1275.19921875 C426.56846422 1277.37324202 424.13223771 1279.62390488 421.6875 1281.875 C417.19986568 1285.96757435 412.59069772 1289.85270834 407.86328125 1293.6640625 C405.34627818 1295.71749747 402.87499766 1297.81497463 400.41455078 1299.93554688 C387.30653882 1311.20180525 373.18288845 1321.14567562 359 1331 C357.86473877 1331.79108154 357.86473877 1331.79108154 356.70654297 1332.59814453 C339.7312805 1344.40594261 322.36473565 1355.39492741 304.39501953 1365.62451172 C302.05158924 1366.97037168 299.72559827 1368.34231463 297.40234375 1369.72265625 C256.65922115 1393.75741445 212.86312617 1412.22137189 168 1427 C163.74468222 1428.4076861 159.49701301 1429.82338846 155.2734375 1431.32421875 C125.72451907 1441.77061246 94.75086929 1447.40053526 64 1453 C62.70757385 1453.23553589 62.70757385 1453.23553589 61.38903809 1453.47583008 C39.34774469 1457.47050025 17.38409307 1460.29528756 -4.96491814 1461.85678101 C-6.859401 1461.99010534 -8.75353184 1462.12840597 -10.64762878 1462.2671051 C-20.50655076 1462.94510032 -30.30753328 1463.14790225 -40.1875 1463.1328125 C-41.78540054 1463.13348921 -43.38330098 1463.13446226 -44.98120117 1463.13571167 C-48.30225623 1463.13717142 -51.62328408 1463.13509036 -54.94433594 1463.13037109 C-59.15280831 1463.1246749 -63.36121685 1463.12796326 -67.56968689 1463.13394356 C-70.86096661 1463.13759622 -74.15223175 1463.13638925 -77.44351196 1463.13381577 C-78.99329639 1463.13315943 -80.54308223 1463.13392832 -82.09286499 1463.13629532 C-95.53247605 1463.15232869 -108.87774585 1462.54651956 -122.25 1461.125 C-123.4860498 1460.99484497 -123.4860498 1460.99484497 -124.74707031 1460.86206055 C-126.54629937 1460.67258977 -128.3454511 1460.48238349 -130.14453125 1460.29150391 C-133.12580359 1459.98715719 -136.10894064 1459.7165221 -139.09375 1459.44921875 C-159.260718 1457.56441308 -179.07266705 1454.06353069 -198.97387695 1450.37371826 C-201.55896624 1449.89689871 -204.14674017 1449.43543349 -206.734375 1448.97265625 C-230.10835647 1444.66878269 -253.44498688 1438.64114374 -275.84570312 1430.73046875 C-278.52380978 1429.82238907 -281.22735132 1429.05319948 -283.95214844 1428.29931641 C-335.15816703 1414.13139439 -385.70114832 1389.54906516 -431 1362 C-431.91604004 1361.44570312 -432.83208008 1360.89140625 -433.77587891 1360.3203125 C-471.57926122 1337.39204645 -507.0440603 1311.19683401 -540.49023438 1282.30273438 C-541.70391068 1281.25548716 -542.92162412 1280.21291955 -544.140625 1279.171875 C-556.7321515 1268.33221305 -568.54870053 1256.61533258 -580.2734375 1244.85693359 C-582.52228794 1242.60265829 -584.77652448 1240.35386624 -587.03125 1238.10546875 C-588.48990452 1236.6461543 -589.94824927 1235.18653015 -591.40625 1233.7265625 C-592.39703552 1232.73881332 -592.39703552 1232.73881332 -593.40783691 1231.73110962 C-597.2636375 1227.8560706 -600.93844672 1223.87143037 -604.50759888 1219.73051453 C-606.42173736 1217.51097422 -608.39751414 1215.35061192 -610.375 1213.1875 C-614.27680286 1208.86388062 -617.98148498 1204.41257548 -621.640625 1199.8828125 C-623.65188428 1197.42534669 -625.70662501 1195.01502909 -627.78564453 1192.61499023 C-635.04909539 1184.19568946 -641.65212589 1175.30008067 -648.25439453 1166.35839844 C-649.77297849 1164.30671718 -651.30284623 1162.26445406 -652.83984375 1160.2265625 C-661.39020289 1148.82714415 -669.20502822 1136.92337518 -677 1125 C-677.54301758 1124.16952148 -678.08603516 1123.33904297 -678.64550781 1122.48339844 C-693.1820607 1100.13169557 -706.05518703 1076.82560897 -718 1053 C-718.45181641 1052.10039551 -718.90363281 1051.20079102 -719.36914062 1050.27392578 C-731.46986733 1025.99347377 -741.34909687 1000.65825401 -750.77905273 975.24487305 C-752.01703897 971.95471607 -753.30682666 968.6876977 -754.59765625 965.41796875 C-756.93854215 959.34683867 -758.7602115 953.21991803 -760.4375 946.9375 C-762.26055771 940.23611616 -764.10648359 933.56246324 -766.22119141 926.94702148 C-773.60118745 903.66758611 -778.06961611 879.17406095 -782.42089844 855.17944336 C-782.84425504 852.85508711 -783.28178495 850.53329986 -783.72753906 848.21313477 C-785.85108806 836.96465514 -787.07122044 825.70530832 -788.125 814.3125 C-788.37787479 811.63507329 -788.63270397 808.95784963 -788.88961792 806.2808075 C-789.04704875 804.63491547 -789.20193987 802.98877771 -789.35379028 801.34236145 C-789.64997447 798.2025249 -789.97892644 795.12113586 -790.51977539 792.01220703 C-793.57044372 772.87690155 -792.18765711 752.5167143 -792.18530273 733.1809082 C-792.18522167 729.69778225 -792.19214845 726.21478837 -792.20581055 722.73168945 C-792.28810272 701.39208395 -791.95408308 680.26744273 -790 659 C-789.92194122 658.14445526 -789.84388245 657.28891052 -789.76345825 656.40744019 C-789.31129251 651.59533101 -788.77410051 646.7978486 -788.1875 642 C-788.10418427 641.30551758 -788.02086853 640.61103516 -787.93502808 639.89550781 C-786.15984468 625.16855152 -783.71950394 610.58134633 -781 596 C-780.68844971 594.2984375 -780.68844971 594.2984375 -780.37060547 592.5625 C-778.30991463 581.32295405 -776.12823344 570.12201645 -773.5 559 C-773.32275391 558.24912109 -773.14550781 557.49824219 -772.96289062 556.72460938 C-769.36736208 541.95140263 -765.01217015 527.37033857 -760.4375 512.875 C-760.18121826 512.06250793 -759.92493652 511.25001587 -759.66088867 510.41290283 C-743.63797868 459.82568999 -722.38601291 408.87520441 -694.12158203 363.80175781 C-692.88400199 361.81365579 -691.67296887 359.81081942 -690.46484375 357.8046875 C-671.60256009 326.53589995 -650.63834297 296.88471821 -627.40478516 268.70898438 C-626.09873599 267.12011677 -624.80471919 265.52137947 -623.51171875 263.921875 C-619.18774668 258.57478691 -614.72852345 253.3961278 -610.09765625 248.3125 C-608.30492554 246.33615628 -606.55204773 244.3354327 -604.8125 242.3125 C-595.01305902 231.12572243 -584.62514971 220.52334197 -574.125 210 C-573.58538635 209.45779816 -573.04577271 208.91559631 -572.48980713 208.35696411 C-567.02741811 202.87392588 -561.56520164 197.43730077 -555.6472168 192.43896484 C-553.90027466 190.91288259 -552.29389046 189.29750019 -550.6875 187.625 C-547.01522127 183.88610397 -542.97854927 180.67538825 -538.8984375 177.39453125 C-535.09778104 174.25463582 -531.49524474 170.92456684 -527.8984375 167.5546875 C-524.0718525 164.18192929 -520.04163002 161.10888124 -516 158 C-514.60405931 156.90544098 -513.20949129 155.80912871 -511.81640625 154.7109375 C-469.88757866 121.77769589 -424.75812488 93.63565388 -377 70 C-375.83742676 69.4229834 -374.67485352 68.8459668 -373.47705078 68.25146484 C-335.45026789 49.55695046 -294.71616052 34.74924236 -253.796875 23.7644043 C-251.56249664 23.15373402 -249.33559927 22.52532298 -247.109375 21.88598633 C-235.90581221 18.6865389 -224.64525018 15.98620645 -213.25 13.5625 C-212.35213776 13.37057068 -211.45427551 13.17864136 -210.52920532 12.980896 C-181.95006724 6.9033278 -153.13504083 2.34599939 -124 0 C-122.78199707 -0.10296387 -121.56399414 -0.20592773 -120.30908203 -0.31201172 C-80.54939343 -3.54156168 -39.70891141 -3.87506746 0 0 Z M-132.93768311 16.76245117 C-135.1100539 17.0126766 -137.28352821 17.25061607 -139.45751953 17.48632812 C-166.63997441 20.45037289 -193.13112458 25.28488614 -219.79833984 31.28027344 C-221.72016275 31.71229524 -223.64227139 32.14305302 -225.56494141 32.57128906 C-309.94670743 51.4046948 -394.24883818 88.9806274 -473.18994141 145.66015625 C-475.62914627 147.46570741 -478.09679278 149.23088271 -480.5625 151 C-491.68318716 159.11417266 -502.5787817 167.47051214 -513.015625 176.44921875 C-515.84831712 178.87035482 -518.72454381 181.22329028 -521.625 183.5625 C-526.30060655 187.36696006 -530.77204904 191.35551653 -535.19921875 195.4453125 C-537.39027915 197.44385295 -539.60190239 199.40267482 -541.83984375 201.34765625 C-552.48833477 210.63897439 -562.617802 220.52709458 -572.625 230.5 C-573.35831543 231.22872314 -574.09163086 231.95744629 -574.84716797 232.70825195 C-578.84863214 236.72118559 -582.6698945 240.83222937 -586.36962891 245.12451172 C-588.80048064 247.92082843 -591.34054092 250.61046985 -593.875 253.3125 C-598.3337948 258.10514915 -602.56120791 263.02189828 -606.66015625 268.12890625 C-608.8585979 270.82649325 -611.11068081 273.46324303 -613.390625 276.09155273 C-619.07939184 282.65033457 -624.49866397 289.35020406 -629.71386719 296.29296875 C-631.0425192 298.05643398 -632.3836841 299.80984969 -633.7265625 301.5625 C-646.99439165 318.95910536 -659.31487319 336.9652488 -670.61279297 355.70019531 C-671.84956628 357.75060091 -673.09623331 359.79445568 -674.34765625 361.8359375 C-707.82677963 416.69365806 -735.26892132 476.50147748 -751.43310547 538.86816406 C-752.05053066 541.19002315 -752.71134909 543.49675576 -753.37890625 545.8046875 C-759.9844678 568.85982012 -764.7685212 592.54041504 -768.54833984 616.21533203 C-769.00520269 619.03207668 -769.49609776 621.84157826 -769.98828125 624.65234375 C-780.28340328 685.69799737 -779.78749209 749.60249295 -773 811 C-772.89420624 811.96340302 -772.78841248 812.92680603 -772.67941284 813.91940308 C-771.00234277 828.89809242 -768.59125622 843.65103551 -765.6875 858.4375 C-765.48991089 859.45638306 -765.29232178 860.47526611 -765.08874512 861.52502441 C-762.29052572 875.94948144 -759.34432565 890.30748711 -755.64111328 904.53125 C-755.02270799 906.9125578 -754.42847346 909.29868225 -753.83984375 911.6875 C-738.56063051 972.73933505 -714.06748921 1033.82270543 -681.40722656 1087.67871094 C-679.80272578 1090.32541347 -678.21037217 1092.97928382 -676.6171875 1095.6328125 C-670.00666548 1106.60685497 -663.27998361 1117.45729322 -656 1128 C-655.47438477 1128.76376953 -654.94876953 1129.52753906 -654.40722656 1130.31445312 C-644.72608519 1144.35293651 -634.80329874 1158.19909865 -624.0546875 1171.4453125 C-622.4776453 1173.40612162 -620.9236413 1175.37819827 -619.3828125 1177.3671875 C-614.46531622 1183.70846349 -609.46952845 1189.87156251 -604.03515625 1195.78515625 C-602.21532831 1197.76565997 -600.44433669 1199.77626277 -598.6875 1201.8125 C-594.12241847 1207.04768524 -589.38545964 1212.12516526 -584.65771484 1217.21289062 C-582.99276934 1219.00779505 -581.33395421 1220.80821431 -579.67578125 1222.609375 C-573.44362615 1229.35871397 -567.1086108 1235.99133543 -560.625 1242.5 C-559.98336914 1243.14622314 -559.34173828 1243.79244629 -558.68066406 1244.45825195 C-554.90263339 1248.22409228 -551.00549898 1251.79026212 -546.96875 1255.27636719 C-543.79358429 1258.05621217 -540.75009132 1260.97250424 -537.6875 1263.875 C-532.52070379 1268.73353164 -527.2638362 1273.38067933 -521.71875 1277.80859375 C-519.26365773 1279.78748278 -516.86338549 1281.81872921 -514.47387695 1283.87597656 C-506.91737265 1290.36979336 -499.05631202 1296.4208299 -491.09814453 1302.41210938 C-489.15730637 1303.88094943 -487.23088514 1305.36639362 -485.30859375 1306.859375 C-472.6843662 1316.59589489 -459.33671872 1325.28284117 -446 1334 C-445.1347168 1334.56750977 -444.26943359 1335.13501953 -443.37792969 1335.71972656 C-394.45420313 1367.6794401 -341.24551342 1392.36733928 -286.0625 1411.3125 C-284.79653992 1411.74887283 -284.79653992 1411.74887283 -283.50500488 1412.19406128 C-263.24241855 1419.15626935 -242.76310641 1424.75144023 -221.875 1429.5 C-220.31661407 1429.85567551 -220.31661407 1429.85567551 -218.72674561 1430.21853638 C-194.17998325 1435.79900703 -169.61511983 1440.2279576 -144.625 1443.25 C-143.38057129 1443.40138428 -142.13614258 1443.55276855 -140.85400391 1443.70874023 C-114.6924012 1446.6704627 -88.61014011 1447.4067796 -62.3125 1447.375 C-61.48763092 1447.3749081 -60.66276184 1447.37481621 -59.81289673 1447.37472153 C-16.78136353 1447.36854743 29.15008145 1447.17458558 71 1436 C74.6799561 1435.19269967 78.37169071 1434.44341626 82.0625 1433.6875 C84.20064087 1433.24406796 86.33865868 1432.80004224 88.4765625 1432.35546875 C91.67915162 1431.6898905 94.88176312 1431.02445958 98.08496094 1430.36181641 C109.09186443 1428.07483044 119.96259679 1425.63998078 130.70605469 1422.31591797 C134.09507868 1421.27024341 137.49504641 1420.27070107 140.9030304 1419.28890991 C150.29732823 1416.57399825 159.56878848 1413.56217821 168.8125 1410.375 C169.56456726 1410.11610992 170.31663452 1409.85721985 171.0914917 1409.59048462 C204.35799052 1398.10835733 236.83391329 1384.38449395 268 1368 C268.83370117 1367.56187988 269.66740234 1367.12375977 270.52636719 1366.67236328 C323.74914273 1338.51483901 373.84159152 1303.93965109 418.38549805 1263.37915039 C420.09463293 1261.82386797 421.80848311 1260.27374742 423.52758789 1258.72949219 C431.65895202 1251.37202947 439.45107665 1243.70264212 447.19262695 1235.93774414 C449.32324634 1233.80172643 451.45921223 1231.67115882 453.59570312 1229.54101562 C454.9768835 1228.15917493 456.35775389 1226.77702433 457.73828125 1225.39453125 C458.36446854 1224.77036819 458.99065582 1224.14620514 459.63581848 1223.50312805 C463.41101338 1219.70814605 466.99951332 1215.79569871 470.4959259 1211.7421875 C472.41480633 1209.51952473 474.3938243 1207.35464814 476.375 1205.1875 C480.27363397 1200.86739209 483.97503858 1196.41928619 487.6328125 1191.89453125 C489.68391905 1189.38649503 491.77424332 1186.91901907 493.88696289 1184.46289062 C500.36972897 1176.91069457 506.41794315 1169.06104568 512.40332031 1161.11132812 C513.89999486 1159.13223921 515.41181633 1157.16597803 516.9296875 1155.203125 C525.89112506 1143.54429017 533.96927698 1131.31168397 542 1119 C542.53625 1118.18160645 543.0725 1117.36321289 543.625 1116.52001953 C572.73960562 1071.92880226 595.62061733 1023.88738323 614 974 C614.38953857 972.94699707 614.77907715 971.89399414 615.18041992 970.80908203 C616.93604339 966.03044756 618.60599932 961.25522306 620.0625 956.375 C621.12294572 952.83411256 622.22394589 949.316744 623.41015625 945.81640625 C625.21272017 940.44087291 626.79790718 935.00773265 628.375 929.5625 C628.6534375 928.60923828 628.931875 927.65597656 629.21875 926.67382812 C630.15556375 923.45194841 631.0784315 920.22627322 632 917 C632.2891478 916.00194839 632.2891478 916.00194839 632.58413696 914.98373413 C635.86603567 903.6382691 638.60802919 892.26479367 640.9375 880.6875 C641.10608521 879.85606476 641.27467041 879.02462952 641.44836426 878.16799927 C646.49611321 853.19015137 650.64009784 828.15957109 653.3125 802.8125 C653.43473938 801.65752518 653.43473938 801.65752518 653.55944824 800.47921753 C655.89846762 778.03845796 656.27817299 755.6679621 656.3125 733.125 C656.31409245 732.33627377 656.31568489 731.54754753 656.31732559 730.7349205 C656.3544506 709.02752718 655.94748375 687.46150377 654.1875 665.8125 C654.10472809 664.78441223 654.02195618 663.75632446 653.93667603 662.69708252 C652.34503382 643.49514085 649.5911573 624.47018483 646.25 605.5 C646.06307587 604.43279221 646.06307587 604.43279221 645.87237549 603.34402466 C643.41216594 589.4022589 640.22723533 575.71255474 636.74462891 561.98925781 C635.94101768 558.76321981 635.21032688 555.52668671 634.49829102 552.27954102 C631.77145602 539.97135637 627.84509433 527.9947994 624 516 C623.79634827 515.3613501 623.59269653 514.7227002 623.38287354 514.06469727 C614.07523303 484.87931041 603.14247024 456.69958136 590 429 C589.5153125 427.97036133 589.030625 426.94072266 588.53125 425.87988281 C570.36889448 387.32035068 549.15688049 350.46301077 524 316 C523.43539063 315.22430664 522.87078125 314.44861328 522.2890625 313.64941406 C512.44683969 300.14859205 502.50909742 286.79183454 491.6328125 274.1015625 C489.29496349 271.36706908 487.05067752 268.5668698 484.8125 265.75 C478.93177749 258.52511235 472.43348649 251.86985254 466.01367188 245.12695312 C463.57037677 242.54620786 461.15915471 239.93708617 458.74926758 237.32519531 C452.99340134 231.09696316 447.11095934 225.00752683 441.125 219 C440.43543213 218.30583984 439.74586426 217.61167969 439.03540039 216.89648438 C435.08980853 212.96276968 431.04294514 209.21061092 426.80615234 205.59179688 C424.95793999 203.9629317 423.22447583 202.25863411 421.5 200.5 C417.83749084 196.78821942 413.967178 193.38164095 410 190 C408.50919922 188.72769531 408.50919922 188.72769531 406.98828125 187.4296875 C334.74963807 125.95576327 253.32934032 80.41204952 113 34 C112.23874817 33.82315674 111.47749634 33.64631348 110.69317627 33.46411133 C76.15366331 25.46754698 41.32992331 19.20956204 6 16 C5.21282593 15.91988678 4.42565186 15.83977356 3.61462402 15.75723267 C-15.61802442 13.81040079 -34.77457846 13.63986102 -54.08345032 13.68214417 C-56.65666857 13.68756674 -59.22987766 13.68994645 -61.80310059 13.6920166 C-85.60375641 13.72187138 -109.26871718 14.0148458 -132.93768311 16.76245117 Z " fill="#0B0B0B" transform="translate(1085,293)"/>
<path d="M0 0 C0.84603963 -0.00709439 1.69207927 -0.01418877 2.56375647 -0.02149814 C5.39766258 -0.0390952 8.23020026 -0.02096491 11.06408691 -0.00291443 C13.09610112 -0.00805259 15.12811088 -0.01533309 17.16011047 -0.02459717 C22.67873659 -0.04313234 28.1968804 -0.03015901 33.71548653 -0.01050687 C39.48806456 0.00586333 45.26061166 -0.002931 51.03320312 -0.00802612 C60.72765824 -0.01254889 70.42192053 0.00333423 80.11633301 0.03126526 C91.3277964 0.06331787 102.53891198 0.06330195 113.75040007 0.04605049 C124.53113896 0.03019219 135.31175022 0.03691451 146.09248352 0.0539875 C150.68251437 0.06086393 155.2724431 0.05981944 159.86247253 0.05244255 C165.26669707 0.04478706 170.6705253 0.05688207 176.07468224 0.08429146 C178.0592449 0.09118406 180.04384452 0.09126392 182.02840614 0.08407593 C184.73528289 0.07540076 187.44093116 0.09130424 190.14770508 0.11352539 C190.93515657 0.10528462 191.72260806 0.09704386 192.53392172 0.08855337 C196.07165065 0.14224463 198.43029993 0.55085896 201.56164551 2.23767853 C204.24142985 5.42127379 204.19773532 7.2542335 204.1953125 11.39102173 C204.20170132 12.07019242 204.20809014 12.74936312 204.21467257 13.44911474 C204.22993047 15.72433135 204.20945906 17.99780861 204.18908691 20.27296448 C204.19258788 21.90413999 204.19824619 23.53531209 204.2059021 25.16647339 C204.22016227 29.5962751 204.20307749 34.02545701 204.17961693 38.45519948 C204.15952937 43.08760313 204.16538633 47.71998051 204.16772461 52.35241699 C204.16767102 60.13105002 204.14790247 67.90944028 204.11584473 75.68800354 C204.07893818 84.68695718 204.07017074 93.68559289 204.07714224 102.68461233 C204.08344228 111.33548476 204.07270305 119.98624792 204.05317688 128.63709831 C204.04499245 132.32166027 204.04229524 136.00616647 204.04386902 139.69073677 C204.04474646 144.02708558 204.03056981 148.36313113 204.00464249 152.69939995 C203.99746642 154.29294744 203.99540397 155.88652716 203.99876022 157.48008728 C204.00246134 159.65116972 203.98777685 161.82136039 203.96826172 163.99234009 C203.96266865 165.81661073 203.96266865 165.81661073 203.95696259 167.67773533 C203.57385254 170.62818909 203.57385254 170.62818909 202.56876373 172.51912022 C199.31078461 174.33039043 195.89222392 174.0392792 192.26086426 174.00914001 C191.40287169 174.01381999 190.54487911 174.01849996 189.66088676 174.02332175 C186.77494905 174.03532415 183.8894816 174.02579409 181.00354004 174.01637268 C178.93902305 174.02043605 176.87450823 174.02577661 174.80999756 174.03230286 C169.19439642 174.04601013 163.57896014 174.04066372 157.96335602 174.0311656 C152.09507289 174.02358666 146.22680417 174.03060969 140.35852051 174.0353241 C130.50253761 174.0407868 120.64662209 174.03357652 110.79064941 174.01930237 C99.38497201 174.0029749 87.97945547 174.00826305 76.57378197 174.02478158 C66.79284981 174.03838177 57.01196616 174.0403233 47.2310276 174.03246558 C41.38415514 174.02778099 35.53735837 174.02718577 29.69049072 174.03707504 C24.19444981 174.04572108 18.69861693 174.03976607 13.20259857 174.02239227 C11.18171281 174.01841478 9.16080963 174.01958293 7.13993073 174.02618027 C4.38866186 174.03433605 1.63806638 174.02414674 -1.11315918 174.00914001 C-1.91947344 174.01583218 -2.7257877 174.02252434 -3.55653572 174.0294193 C-8.94496352 173.97211519 -8.94496352 173.97211519 -11.38320923 172.22937965 C-13.6349726 168.77231753 -13.56078671 166.35922247 -13.58004761 162.23321533 C-13.58442986 161.56941528 -13.58881212 160.90561522 -13.59332716 160.22170001 C-13.60673167 157.98699498 -13.61289768 155.7523294 -13.61901855 153.51759338 C-13.62691818 151.91951824 -13.63518704 150.32144488 -13.64379883 148.72337341 C-13.67003354 143.46640226 -13.68532719 138.20942307 -13.69958496 132.95240784 C-13.70494391 131.14409187 -13.71032142 129.33577596 -13.71571732 127.5274601 C-13.73734753 120.00674855 -13.7560852 112.48603916 -13.76733971 104.96530437 C-13.78358522 94.17959881 -13.81677582 83.39425315 -13.87374055 72.60868329 C-13.91241128 65.02900962 -13.93196894 57.44943233 -13.93726027 49.86966258 C-13.94091749 45.34049304 -13.95297774 40.81170722 -13.98536301 36.28264427 C-14.01539366 32.02177695 -14.02177362 27.76152653 -14.00997925 23.50057602 C-14.0097581 21.93685802 -14.01809774 20.37311181 -14.03563309 18.80949211 C-14.05828191 16.67362124 -14.05005355 14.53999563 -14.03414917 12.40411377 C-14.03745932 11.20930232 -14.04076946 10.01449087 -14.04417992 8.78347301 C-12.50688429 0.93501111 -7.09231832 -0.10660054 0 0 Z " fill="#0B0B0B" transform="translate(810.4261474609375,1017.3718109130859)"/>
<path d="M0 0 C74.58 0 149.16 0 226 0 C226 76.89 226 153.78 226 233 C209.5 233 193 233 176 233 C175.98018066 227.67891113 175.96036133 222.35782227 175.93994141 216.87548828 C175.87317477 199.33727302 175.79563482 181.7991178 175.71247292 164.26097298 C175.662294 153.62272716 175.6158518 142.98448927 175.578125 132.34619141 C175.54524319 123.07674427 175.5054333 113.8073576 175.45720994 104.5379771 C175.43190692 99.62730143 175.41013699 94.71666607 175.39665604 89.80594254 C175.38387005 85.18818026 175.36185351 80.57055595 175.33261681 75.95286942 C175.32351382 74.25408922 175.3178445 72.55528679 175.31578636 70.85648346 C175.31248291 68.54488028 175.29705842 66.23367288 175.2784729 63.92214966 C175.27294214 62.62610872 175.26741138 61.33006779 175.26171303 59.99475288 C175.31324028 56.88466547 175.31324028 56.88466547 173 55 C170.90254317 54.69360246 170.90254317 54.69360246 168.45179749 54.73930359 C167.49417007 54.73221878 166.53654266 54.72513397 165.54989624 54.71783447 C163.96877548 54.7215506 163.96877548 54.7215506 162.35571289 54.7253418 C160.69464256 54.7176754 160.69464256 54.7176754 159.00001526 54.70985413 C155.32417458 54.69590642 151.64852031 54.6969188 147.97265625 54.69921875 C145.4267927 54.69533468 142.8809298 54.69100061 140.33506775 54.68623352 C134.99264155 54.67876015 129.6502843 54.67893312 124.30786133 54.68432617 C118.12981751 54.69036682 111.95200138 54.67805479 105.77399641 54.6567561 C99.83448677 54.63703133 93.89504785 54.63396455 87.95550346 54.63749123 C85.42646182 54.63697648 82.89741665 54.63171029 80.36839485 54.62167931 C76.83664356 54.6093913 73.30542394 54.61606096 69.77368164 54.62768555 C68.72162537 54.62004181 67.66956909 54.61239807 66.58563232 54.60452271 C65.62518509 54.61153702 64.66473785 54.61855133 63.67518616 54.6257782 C62.83987397 54.62561046 62.00456179 54.62544271 61.14393711 54.62526989 C58.96856377 54.86965354 58.96856377 54.86965354 57.23272133 56.08561134 C55.34218691 59.02156901 55.61368215 61.53720749 55.60127258 65.00444031 C55.59462576 65.72162525 55.58797893 66.43881018 55.58113068 67.177728 C55.5624405 69.58697165 55.56510993 71.9957213 55.56762695 74.4050293 C55.55861344 76.12959498 55.54828724 77.85415423 55.53674316 79.57870483 C55.50909869 84.26641099 55.49987857 88.95399585 55.49388909 93.64177299 C55.48452476 98.53855966 55.458323 103.43525502 55.43388367 108.33198547 C55.39016145 117.60730935 55.36164967 126.88261557 55.33856028 136.15801126 C55.31153924 146.71657802 55.26762586 157.27505318 55.22227156 167.83355463 C55.1293433 189.55566682 55.05993024 211.27776998 55 233 C36.85 233 18.7 233 0 233 C0 156.11 0 79.22 0 0 Z " fill="#FBFBFB" transform="translate(1116,999)"/>
<path d="M0 0 C159.06 0 318.12 0 482 0 C482 3.3 482 6.6 482 10 C480.33710937 10.03867188 480.33710937 10.03867188 478.640625 10.078125 C477.17704453 10.13441656 475.71350438 10.19176367 474.25 10.25 C473.15558594 10.27126953 473.15558594 10.27126953 472.0390625 10.29296875 C468.80095952 10.44015525 466.36316552 10.79313356 463.53125 12.40625 C461.11802016 16.49396584 461.32188085 20.58427954 461.25 25.25 C461.22035156 26.18585938 461.19070313 27.12171875 461.16015625 28.0859375 C461.08960196 30.39071092 461.03683748 32.69448168 461 35 C459.86820313 35.03738281 458.73640625 35.07476563 457.5703125 35.11328125 C456.08850795 35.17893082 454.60673861 35.24537851 453.125 35.3125 C452.37863281 35.33505859 451.63226562 35.35761719 450.86328125 35.38085938 C448.900396 35.47811945 446.94671678 35.73042294 445 36 C440.71127497 42.43308755 442.38609813 51.27803742 442 59 C296.14 59 150.28 59 0 59 C0 39.53 0 20.06 0 0 Z " fill="#FEFEFE" transform="translate(651,1245)"/>
<path d="M0 0 C277.86 0 555.72 0 842 0 C842 6.27 842 12.54 842 19 C564.14 19 286.28 19 0 19 C0 12.73 0 6.46 0 0 Z " fill="#F3F4F4" transform="translate(603,941)"/>
<path d="M0 0 C31.02 0 62.04 0 94 0 C94 54.78 94 109.56 94 166 C62.98 166 31.96 166 0 166 C0 111.22 0 56.44 0 0 Z " fill="#FDFDFD" transform="translate(1185,1066)"/>
<path d="M0 0 C0.84603963 -0.00709439 1.69207927 -0.01418877 2.56375647 -0.02149814 C5.39766258 -0.0390952 8.23020026 -0.02096491 11.06408691 -0.00291443 C13.09610112 -0.00805259 15.12811088 -0.01533309 17.16011047 -0.02459717 C22.67873659 -0.04313234 28.1968804 -0.03015901 33.71548653 -0.01050687 C39.48806456 0.00586333 45.26061166 -0.002931 51.03320312 -0.00802612 C60.72765824 -0.01254889 70.42192053 0.00333423 80.11633301 0.03126526 C91.3277964 0.06331787 102.53891198 0.06330195 113.75040007 0.04605049 C124.53113896 0.03019219 135.31175022 0.03691451 146.09248352 0.0539875 C150.68251437 0.06086393 155.2724431 0.05981944 159.86247253 0.05244255 C165.26669707 0.04478706 170.6705253 0.05688207 176.07468224 0.08429146 C178.0592449 0.09118406 180.04384452 0.09126392 182.02840614 0.08407593 C184.73528289 0.07540076 187.44093116 0.09130424 190.14770508 0.11352539 C190.93515657 0.10528462 191.72260806 0.09704386 192.53392172 0.08855337 C196.07165065 0.14224463 198.43029993 0.55085896 201.56164551 2.23767853 C204.24142985 5.42127379 204.19773532 7.2542335 204.1953125 11.39102173 C204.20170132 12.07019242 204.20809014 12.74936312 204.21467257 13.44911474 C204.22993047 15.72433135 204.20945906 17.99780861 204.18908691 20.27296448 C204.19258788 21.90413999 204.19824619 23.53531209 204.2059021 25.16647339 C204.22016227 29.5962751 204.20307749 34.02545701 204.17961693 38.45519948 C204.15952937 43.08760313 204.16538633 47.71998051 204.16772461 52.35241699 C204.16767102 60.13105002 204.14790247 67.90944028 204.11584473 75.68800354 C204.07893818 84.68695718 204.07017074 93.68559289 204.07714224 102.68461233 C204.08344228 111.33548476 204.07270305 119.98624792 204.05317688 128.63709831 C204.04499245 132.32166027 204.04229524 136.00616647 204.04386902 139.69073677 C204.04474646 144.02708558 204.03056981 148.36313113 204.00464249 152.69939995 C203.99746642 154.29294744 203.99540397 155.88652716 203.99876022 157.48008728 C204.00246134 159.65116972 203.98777685 161.82136039 203.96826172 163.99234009 C203.96266865 165.81661073 203.96266865 165.81661073 203.95696259 167.67773533 C203.57385254 170.62818909 203.57385254 170.62818909 202.56876373 172.51912022 C199.31078461 174.33039043 195.89222392 174.0392792 192.26086426 174.00914001 C191.40287169 174.01381999 190.54487911 174.01849996 189.66088676 174.02332175 C186.77494905 174.03532415 183.8894816 174.02579409 181.00354004 174.01637268 C178.93902305 174.02043605 176.87450823 174.02577661 174.80999756 174.03230286 C169.19439642 174.04601013 163.57896014 174.04066372 157.96335602 174.0311656 C152.09507289 174.02358666 146.22680417 174.03060969 140.35852051 174.0353241 C130.50253761 174.0407868 120.64662209 174.03357652 110.79064941 174.01930237 C99.38497201 174.0029749 87.97945547 174.00826305 76.57378197 174.02478158 C66.79284981 174.03838177 57.01196616 174.0403233 47.2310276 174.03246558 C41.38415514 174.02778099 35.53735837 174.02718577 29.69049072 174.03707504 C24.19444981 174.04572108 18.69861693 174.03976607 13.20259857 174.02239227 C11.18171281 174.01841478 9.16080963 174.01958293 7.13993073 174.02618027 C4.38866186 174.03433605 1.63806638 174.02414674 -1.11315918 174.00914001 C-1.91947344 174.01583218 -2.7257877 174.02252434 -3.55653572 174.0294193 C-8.94496352 173.97211519 -8.94496352 173.97211519 -11.38320923 172.22937965 C-13.6349726 168.77231753 -13.56078671 166.35922247 -13.58004761 162.23321533 C-13.58442986 161.56941528 -13.58881212 160.90561522 -13.59332716 160.22170001 C-13.60673167 157.98699498 -13.61289768 155.7523294 -13.61901855 153.51759338 C-13.62691818 151.91951824 -13.63518704 150.32144488 -13.64379883 148.72337341 C-13.67003354 143.46640226 -13.68532719 138.20942307 -13.69958496 132.95240784 C-13.70494391 131.14409187 -13.71032142 129.33577596 -13.71571732 127.5274601 C-13.73734753 120.00674855 -13.7560852 112.48603916 -13.76733971 104.96530437 C-13.78358522 94.17959881 -13.81677582 83.39425315 -13.87374055 72.60868329 C-13.91241128 65.02900962 -13.93196894 57.44943233 -13.93726027 49.86966258 C-13.94091749 45.34049304 -13.95297774 40.81170722 -13.98536301 36.28264427 C-14.01539366 32.02177695 -14.02177362 27.76152653 -14.00997925 23.50057602 C-14.0097581 21.93685802 -14.01809774 20.37311181 -14.03563309 18.80949211 C-14.05828191 16.67362124 -14.05005355 14.53999563 -14.03414917 12.40411377 C-14.03745932 11.20930232 -14.04076946 10.01449087 -14.04417992 8.78347301 C-12.50688429 0.93501111 -7.09231832 -0.10660054 0 0 Z M-0.42614746 14.62818909 C-0.42614746 62.80818909 -0.42614746 110.98818909 -0.42614746 160.62818909 C62.60385254 160.62818909 125.63385254 160.62818909 190.57385254 160.62818909 C190.57385254 112.44818909 190.57385254 64.26818909 190.57385254 14.62818909 C127.54385254 14.62818909 64.51385254 14.62818909 -0.42614746 14.62818909 Z " fill="#090A09" transform="translate(810.4261474609375,1017.3718109130859)"/>
<path d="M0 0 C240.57 0 481.14 0 729 0 C729 4.29 729 8.58 729 13 C488.43 13 247.86 13 0 13 C0 8.71 0 4.42 0 0 Z " fill="#FEFEFE" transform="translate(658,973)"/>
<path d="M0 0 C63.03 0 126.06 0 191 0 C191 48.18 191 96.36 191 146 C127.97 146 64.94 146 0 146 C0 97.82 0 49.64 0 0 Z M13.12330532 12.22533321 C11.65802288 14.54027647 11.62266862 16.040061 11.61904907 18.77561951 C11.6105896 19.75841888 11.60213013 20.74121826 11.59341431 21.75379944 C11.599487 22.83076584 11.60555969 23.90773224 11.61181641 25.01733398 C11.60655945 26.15251465 11.60130249 27.28769531 11.59588623 28.45727539 C11.58265199 32.22035366 11.59143735 35.98301097 11.6015625 39.74609375 C11.59954262 42.35539328 11.5966319 44.96469227 11.59286499 47.57398987 C11.58740563 53.04750144 11.59460288 58.52089162 11.60888672 63.99438477 C11.62520556 70.3206975 11.61993124 76.64672007 11.6034075 82.97302574 C11.58814714 89.05939354 11.58977033 95.14563281 11.5985527 101.2320118 C11.60055683 103.8216258 11.59808803 106.41124719 11.59111404 109.00085258 C11.58351083 112.61852613 11.59508918 116.23563973 11.61181641 119.85327148 C11.60574371 120.92821365 11.59967102 122.00315582 11.59341431 123.110672 C11.60187378 124.0962912 11.61033325 125.0819104 11.61904907 126.09739685 C11.62018015 126.95261146 11.62131123 127.80782606 11.62247658 128.68895626 C12.10799474 131.66109955 12.7736647 132.95676592 15 135 C17.97618848 135.60275778 17.97618848 135.60275778 21.45275879 135.50120544 C22.1106573 135.50673984 22.7685558 135.51227424 23.44639063 135.51797634 C25.65539757 135.53161198 27.86328025 135.51659943 30.07226562 135.50170898 C31.6540322 135.50549114 33.23579546 135.51099033 34.81755066 135.51808167 C39.11716438 135.53206723 43.41637933 135.52084496 47.71597099 135.50437045 C52.21091924 135.49054165 56.70584383 135.49697755 61.20080566 135.50050354 C68.74998416 135.50320739 76.29900382 135.48971511 83.84814453 135.46655273 C92.58179954 135.43994187 101.31518891 135.43819523 110.04887056 135.4499411 C118.4429086 135.46071227 126.83685035 135.45453702 135.23088074 135.44038582 C138.8065976 135.43462026 142.38224412 135.43471315 145.95796204 135.43945122 C150.16706531 135.44421603 154.37587693 135.43414014 158.5849247 135.41249657 C160.13171213 135.40692172 161.67852754 135.40646979 163.225317 135.41144943 C165.33295106 135.41738476 167.43968811 135.40493242 169.54724121 135.38768005 C170.72784874 135.38525016 171.90845627 135.38282026 173.12483978 135.38031673 C175.96531659 135.21466664 175.96531659 135.21466664 177.87906742 133.77703953 C179.34669148 131.45038223 179.37995014 129.92666229 179.38768005 127.1796875 C179.39758469 126.18702881 179.40748932 125.19437012 179.41769409 124.17163086 C179.41094162 122.53979858 179.41094162 122.53979858 179.40405273 120.875 C179.41091599 119.72845947 179.41777924 118.58191895 179.42485046 117.40063477 C179.44319333 113.60029819 179.43927045 109.80037145 179.43359375 106 C179.43815165 103.36588404 179.44345604 100.73176927 179.44947815 98.09765625 C179.4595132 92.57287658 179.45620192 87.04821392 179.44604492 81.5234375 C179.43455898 75.13456157 179.44864545 68.74610519 179.4754414 62.35728455 C179.50024708 56.2132372 179.50278062 50.06938382 179.49632454 43.92529297 C179.49617076 41.30972597 179.50226179 38.69415111 179.51461601 36.07861328 C179.52943336 32.42708788 179.51891638 28.77649547 179.50170898 25.125 C179.51137695 24.03711182 179.52104492 22.94922363 179.53100586 21.82836914 C179.52117172 20.83571045 179.51133759 19.84305176 179.50120544 18.8203125 C179.50099616 17.95680176 179.50078688 17.09329102 179.50057125 16.20361328 C179.16508512 13.88695101 179.16508512 13.88695101 177.37711525 12.2225399 C174.25856202 10.61868171 171.97089828 10.6224317 168.46495056 10.61904907 C167.81028118 10.6143691 167.1556118 10.60968913 166.48110396 10.60486734 C164.28919803 10.5929089 162.09791634 10.60237731 159.90600586 10.61181641 C158.33394506 10.6077511 156.76188712 10.60240945 155.18983459 10.59588623 C150.92133993 10.58220298 146.65306265 10.5875151 142.38456416 10.59702349 C137.92031562 10.60461353 133.45608581 10.59757642 128.99183655 10.59286499 C121.49574436 10.58740609 113.99974084 10.59460316 106.50366211 10.60888672 C97.83190974 10.62521946 89.16036891 10.61992077 80.48862165 10.6034075 C73.04734831 10.58980355 65.60613873 10.58786744 58.16485697 10.59572351 C53.71862828 10.60040528 49.27249911 10.60101097 44.82627678 10.59111404 C40.64754367 10.58246228 36.46908398 10.58843329 32.29038048 10.60579681 C30.75487472 10.60977101 29.21934604 10.6086117 27.68384933 10.60200882 C25.59160853 10.59383979 23.50025001 10.60405715 21.4080658 10.61904907 C20.23613143 10.62018015 19.06419706 10.62131123 17.85674953 10.62247658 C15.03180686 10.78637594 15.03180686 10.78637594 13.12330532 12.22533321 Z " fill="#F7F7F7" transform="translate(810,1032)"/>
<path d="M0 0 C21.12 0 42.24 0 64 0 C64 32.34 64 64.68 64 98 C42.88 98 21.76 98 0 98 C0 65.66 0 33.32 0 0 Z " fill="#FCFCFC" transform="translate(912,1056)"/>
<path d="M0 0 C20.79 0 41.58 0 63 0 C63 32.34 63 64.68 63 98 C42.21 98 21.42 98 0 98 C0 65.66 0 33.32 0 0 Z " fill="#FDFDFD" transform="translate(836,1056)"/>
<path d="M0 0 C4.95 0 9.9 0 15 0 C15 76.56 15 153.12 15 232 C10.05 232 5.1 232 0 232 C0 155.44 0 78.88 0 0 Z " fill="#FEFEFE" transform="translate(675,1000)"/>
<path d="M0 0 C4.95 0 9.9 0 15 0 C15 76.23 15 152.46 15 231 C10.05 231 5.1 231 0 231 C0 154.77 0 78.54 0 0 Z " fill="#FEFEFE" transform="translate(1355,1000)"/>
<path d="M0 0 C4.95 0 9.9 0 15 0 C15 76.23 15 152.46 15 231 C10.05 231 5.1 231 0 231 C0 154.77 0 78.54 0 0 Z " fill="#FEFEFE" transform="translate(1087,1000)"/>
<path d="M0 0 C81.51 0 163.02 0 247 0 C247 3.63 247 7.26 247 11 C165.49 11 83.98 11 0 11 C0 7.37 0 3.74 0 0 Z " fill="#FAFAFA" transform="translate(1106,1293)"/>
<path d="M0 0 C22.44 0 44.88 0 68 0 C68 19.47 68 38.94 68 59 C59.09 59 50.18 59 41 59 C40.625 48.625 40.625 48.625 40.52197266 45.35791016 C40.4863623 44.51019043 40.45075195 43.6624707 40.4140625 42.7890625 C40.3826416 41.91975098 40.3512207 41.05043945 40.31884766 40.15478516 C40.18770567 37.79038206 40.18770567 37.79038206 38 36 C35.26565038 35.6936141 32.61720179 35.4886664 29.875 35.375 C29.12089844 35.33632812 28.36679688 35.29765625 27.58984375 35.2578125 C25.72696816 35.16348969 23.86351745 35.08065338 22 35 C21.98598145 34.06933716 21.98598145 34.06933716 21.97167969 33.11987305 C21.91799005 30.30827323 21.83434354 27.4983402 21.75 24.6875 C21.73582031 23.71103516 21.72164062 22.73457031 21.70703125 21.72851562 C21.67480469 20.79072266 21.64257812 19.85292969 21.609375 18.88671875 C21.58842773 18.02264404 21.56748047 17.15856934 21.54589844 16.26831055 C21.17753806 13.86705459 21.17753806 13.86705459 19.21875 12.2265625 C16.89488271 10.94188939 15.51808557 10.58780627 12.890625 10.48828125 C12.13652344 10.45283203 11.38242188 10.41738281 10.60546875 10.38085938 C9.82816406 10.35830078 9.05085938 10.33574219 8.25 10.3125 C7.06083984 10.26125977 7.06083984 10.26125977 5.84765625 10.20898438 C3.89892496 10.12680896 1.94948638 10.06171955 0 10 C0 6.7 0 3.4 0 0 Z " fill="#FAFAFA" transform="translate(1325,1245)"/>
<path d="M0 0 C68.64 0 137.28 0 208 0 C208 3.63 208 7.26 208 11 C139.36 11 70.72 11 0 11 C0 7.37 0 3.74 0 0 Z " fill="#F3F3F2" transform="translate(1125,1269)"/>
<path d="M0 0 C54.12 0 108.24 0 164 0 C164 3.3 164 6.6 164 10 C109.88 10 55.76 10 0 10 C0 6.7 0 3.4 0 0 Z " fill="#FBFBFB" transform="translate(1147,1245)"/>
<path d="M0 0 C3.11199254 1.99167522 4.61304528 3.27090501 5.43359375 6.9375 C5.67357753 10.77724044 5.23135114 12.63754988 3.125 15.9375 C0.26777694 18.71068709 -1.42300746 19.20503898 -5.3125 19.375 C-8.86905532 19.31189983 -9.93115282 19.04355638 -13.0625 17.0625 C-15.67267571 12.9367384 -16.03185759 9.75514375 -15 5 C-11.39899014 -0.88164943 -6.35398762 -1.27079752 0 0 Z " fill="#090909" transform="translate(1211,1139)"/>
</svg>
