<svg width="1117" height="570" viewBox="0 0 1117 570" fill="none" xmlns="http://www.w3.org/2000/svg">
<path d="M511.942 278.455C512.047 278.394 512.151 278.334 512.256 278.334C512.099 278.334 512.047 278.334 511.942 278.455Z" fill="#2F6FED" fill-opacity="0.06"/>
<path d="M628.409 382.2C625.534 383.047 622.868 384.984 619.993 385.589C614.295 386.86 614.87 383.713 610.374 381.716C614.19 378.568 601.854 364.344 601.331 364.465C601.07 365.071 600.808 365.676 600.599 366.281C597.097 366.826 588.472 335.533 587.27 332.507C584.447 325.485 579.899 319.312 577.756 311.988C575.822 305.451 576.815 302.424 570.542 301.94C564.113 301.395 560.663 301.759 554.181 298.914C549.215 296.735 545.347 294.495 540.799 298.248C536.565 301.759 538.081 305.753 531.912 303.756C528.985 302.848 526.319 299.64 523.549 298.066C520.412 296.251 516.962 295.282 513.774 293.587C514.558 294.011 510.846 290.5 510.689 291.408C510.585 289.774 512.519 287.958 512.78 286.142C512.885 285.598 511.317 279.424 511.996 278.395C511.526 278.637 511.108 278.94 510.689 279.303C508.703 278.94 509.853 275.974 506.508 277.911C501.385 281.24 494.119 278.758 488.369 280.211C480.737 282.148 475.666 285.719 467.773 284.387C460.664 283.177 460.089 287.292 455.593 294.072C451.464 300.306 448.798 307.146 444.041 312.835C439.023 318.827 435.155 323.609 431.757 330.993C427.471 340.133 429.352 344.431 429.248 353.994C429.196 361.136 424.7 365.494 425.432 372.334C425.589 373.665 428.83 385.226 429.457 384.318C430.346 383.047 428.986 380.808 431.286 382.2C434.109 383.834 435.677 389.221 437.141 392.066C441.637 400.782 446.864 409.195 456.378 410.043C466.728 410.95 475.719 405.079 485.546 404.171C490.355 403.748 491.557 405.14 495.321 408.045C496.732 409.135 497.83 410.527 499.503 411.193C501.123 411.858 503.685 410.95 505.044 411.737C512.728 416.398 505.462 427.898 507.135 435.222C509.696 446.48 518.583 454.228 520.151 466.636C521.719 478.923 513.774 488.547 515.237 500.592C516.387 510.155 521.04 519.537 523.13 528.979C525.326 538.966 530.083 547.743 531.965 557.791C533.794 567.657 534.892 571.409 544.092 569.533C552.508 567.838 559.826 566.93 565.994 559.485C570.804 553.675 576.24 546.048 578.07 538.482C579.429 532.732 579.115 534.306 582.356 530.432C584.97 527.285 586.12 528.677 586.904 523.592C587.636 518.75 584.917 514.513 586.642 509.611C588.367 504.768 592.392 503.074 595.842 500.229C603.004 494.358 605.774 486.247 604.102 475.957C603.527 472.326 602.011 469.299 601.54 465.728C601.331 463.973 601.958 462.217 601.802 460.462C601.488 457.073 599.449 454.47 599.658 450.959C600.233 440.791 611.106 431.167 616.804 424.388C624.122 415.672 630.081 406.532 634.42 395.455C637.975 385.832 638.55 379.295 628.409 382.2Z" fill="#2F6FED" fill-opacity="0.06"/>
<path d="M629.453 478.738C629.923 477.891 626.63 485.82 626.63 483.036C626.63 490.602 614.921 492.054 613.248 500.226C612.15 505.734 612.778 511.423 611.575 517.052C610.687 521.289 609.275 528.008 613.353 531.155C623.912 539.387 632.537 498.894 630.969 491.994C631.544 492.781 632.066 493.507 632.589 494.294C634.21 490.541 630.76 476.438 629.453 478.738Z" fill="#2F6FED" fill-opacity="0.06"/>
<path d="M1109.1 391.406C1107.64 389.598 1105.32 387.917 1104.67 385.396C1104.38 384.261 1105.47 381.235 1105.61 381.824C1105.32 380.773 1105.97 379.47 1105.25 377.957C1104.52 376.402 1102.09 377.033 1101.36 375.814C1099.26 372.368 1099.66 371.149 1096.64 368.165C1093.41 364.929 1086.19 362.996 1082.19 361.063C1075.51 357.869 1071.77 356.818 1065.23 360.349C1060.77 362.744 1062.4 364.677 1058.7 359.466C1055.87 355.474 1056.52 347.363 1049.48 351.691C1049.66 351.565 1044.32 354.465 1044.32 353.12C1044.32 355.978 1055.21 362.366 1056.27 360.391C1054.81 363.374 1050.06 359.172 1049.95 363.627C1049.91 364.677 1055 370.056 1055.43 369.384C1055.54 368.712 1055.54 367.997 1055.47 367.325C1057.25 365.476 1067.96 372.746 1069.12 374.259C1073.8 380.311 1068.72 381.95 1068.72 388.506C1068.72 383.967 1089.2 395.65 1087.38 395.65C1091.23 395.65 1089.85 388.212 1092.5 386.573C1095.7 384.597 1098.53 388.632 1100.71 390.733C1103.8 393.675 1112.11 407.039 1116.32 398.928C1116.1 399.222 1109.75 392.204 1109.1 391.406Z" fill="#2F6FED" fill-opacity="0.06"/>
<path d="M1107.03 457.553C1106.41 456.376 1104.01 453.645 1103.72 452.972C1102.81 451.039 1102.89 448.517 1102.09 446.206C1099.69 439.23 1094.43 437.759 1093.41 429.732C1093.16 427.841 1093.74 414.309 1090.83 414.729C1090.43 415.779 1089.71 416.41 1088.69 416.662C1087.09 416.074 1090.29 405.441 1089.34 405.441C1088.94 405.441 1088.18 410.4 1088.54 410.652C1088.07 410.358 1086.37 397.372 1084.33 400.146C1079.94 407.248 1082.19 430.236 1071.99 429.984C1069.05 429.9 1063.2 425.109 1061.24 422.588C1060.37 421.453 1058.15 420.486 1058.23 418.595C1058.26 417.755 1060.84 414.182 1061.28 414.435C1062 414.981 1061.64 417.965 1063.67 416.536C1064 415.359 1063.89 414.266 1063.38 413.174C1062.84 413.384 1062.33 413.636 1061.82 413.93C1060.22 412.165 1065.74 407.837 1064.65 405.567C1063.53 403.214 1055.47 404.474 1053.25 403.928C1051.94 403.592 1050.02 400.566 1048.49 400.902C1045.37 401.659 1047.91 402.878 1047.62 403.13C1048.2 402.625 1050.02 404.769 1049.18 405.693C1047.91 407.08 1045.66 405.231 1044.43 406.156C1041.16 408.593 1038.87 415.779 1035.42 417.25C1031.32 419.015 1031.21 415.065 1027.91 414.519C1021.66 413.468 1026.75 414.603 1024.06 417.587C1020.25 421.831 1016.07 423.134 1014.18 429.732C1013.64 428.597 1013.24 427.378 1012.95 426.076C1009.68 426.076 1009.64 431.791 1008.41 434.019C1005.79 438.683 1002.53 441.247 998.097 443.18C991.162 446.206 982.847 446.416 978.526 454.569C978.526 454.401 977.945 451.333 977.51 452.132C976.783 453.392 973.37 465.033 973.661 469.993C973.443 469.404 973.225 468.858 973.153 468.648C972.826 469.572 972.535 470.455 972.208 471.379C972.027 471.127 971.228 469.572 971.301 469.32C969.449 476.044 972.971 482.264 973.661 488.778C974.351 495.124 972.608 497.771 970.72 503.235C965.128 519.331 981.141 511.976 989.601 510.547C1001.33 508.572 1011.28 498.57 1023.01 497.898C1027.04 497.687 1032.37 498.36 1034.95 502.394C1036.59 505 1035.31 513.573 1038.76 514.246C1038.51 514.204 1047.55 502.899 1048.49 503.991C1049.51 505.588 1040.18 515.044 1041.31 515.506C1043.92 516.599 1044.83 509.917 1046.72 510.715C1048.71 511.556 1044.43 515.674 1044.68 516.767C1045.74 517.103 1046.79 517.313 1047.88 517.44C1048.17 519.079 1048.1 520.675 1047.59 522.272C1049.51 526.811 1049.77 528.702 1054.34 530.594C1062.47 533.914 1072.46 529.669 1079.18 524.248C1086.95 517.986 1092.72 508.572 1099.15 500.629C1104.27 494.283 1112.47 486.004 1110.73 476.17C1110.33 476.717 1109.93 477.305 1109.57 477.893C1109.31 474.657 1111.67 468.269 1112.47 465.664C1110.8 470.875 1107.57 458.604 1107.03 457.553Z" fill="#2F6FED" fill-opacity="0.06"/>
<path d="M1056.85 538.959C1056.96 538.791 1057.06 538.622 1057.21 538.454C1057.03 538.622 1056.92 538.791 1056.85 538.959Z" fill="#2F6FED" fill-opacity="0.06"/>
<path d="M1056.84 538.959C1056.52 539.421 1056.19 539.925 1055.86 540.388C1040.87 566.402 1071.44 545.683 1067.34 540.808C1068.61 542.573 1056.04 541.396 1056.84 538.959Z" fill="#2F6FED" fill-opacity="0.06"/>
<path d="M1067.23 540.68C1067.27 540.721 1067.3 540.763 1067.34 540.805C1067.3 540.763 1067.27 540.721 1067.23 540.68Z" fill="#2F6FED" fill-opacity="0.06"/>
<path d="M602.756 1.53533C601.632 3.15545 589.684 5.28692 589.69 7.20943C589.689 6.82493 617.666 11.3869 617.25 6.15947C617.108 3.39166 603.877 -0.623099 602.756 1.53533ZM610.007 5.11626C609.015 6.35127 607.156 6.66745 605.761 6.36628C606.622 5.82399 612.057 2.49214 610.007 5.11626ZM594.535 6.18736C594.531 4.95695 594.543 8.57127 594.535 6.18736V6.18736Z" fill="#2F6FED" fill-opacity="0.06"/>
<path d="M581.909 4.86168C579.123 5.95114 571.957 8.13741 568.831 6.69072C574.818 9.50842 583.372 5.39323 588.431 8.75351C587.035 8.37545 585.707 8.38158 584.313 8.69561C583.714 8.23698 587.625 6.14261 587.492 5.91253C586.688 3.91682 583.036 4.31818 581.909 4.86168Z" fill="#2F6FED" fill-opacity="0.06"/>
<path d="M487.238 33.6295C488.561 31.9316 477.753 37.2876 482.003 37.268C481.472 37.2705 465.05 32.4245 466.392 36.4172C466.995 38.1063 468.728 39.7901 469.928 41.015C469.329 40.7102 466.798 38.4917 466.269 39.417C467.67 41.1024 469.268 42.2485 471.196 42.8548C478.705 44.0506 480.912 48.4239 488.674 45.6965C490.73 44.9949 491.644 40.1458 494.503 41.2093C496.033 41.8174 496.976 45.5813 497.241 45.657C498.106 45.9606 509.73 46.0607 508.794 44.2194C508.191 42.838 494.888 37.2086 494.359 37.9032C498.792 32.7303 510.85 43.4409 514.209 35.0431C513.221 37.4316 490.612 29.615 487.238 33.6295ZM492.563 37.0655C491.836 38.1455 491.105 37.9951 490.37 36.6911C491.097 35.6111 491.828 35.7616 492.563 37.0655ZM480.558 41.8888C479.696 42.508 478.899 42.3579 478.297 41.284C479.225 40.5876 479.956 40.815 480.558 41.8888ZM476.313 43.6003C476.304 41.1394 476.321 46.138 476.313 43.6003V43.6003Z" fill="#2F6FED" fill-opacity="0.06"/>
<path d="M637.128 46.9396C623.523 50.3862 611.635 50.7487 602.841 62.6326C602.708 62.3256 605.304 64.0824 604.905 64.0843C599.13 64.88 602.659 67.5554 602.529 68.4788C601.469 69.4066 600.476 70.4109 599.55 71.4918C599.565 75.8753 621.099 80.1596 621.887 77.4643C623.788 69.9957 607.993 73.6062 617.781 61.1794C623.204 54.2329 642.213 57.9905 644.176 49.2912C644.83 46.2889 637.658 46.7834 637.128 46.9396ZM606.029 62.4641C604.638 63.6241 606.095 62.3869 606.029 62.4641V62.4641Z" fill="#2F6FED" fill-opacity="0.06"/>
<path d="M513.472 72.145C511.227 76.0006 504.516 75.3394 501.264 76.0465C495.49 77.3806 490.449 79.5571 485.815 83.8852C484.821 84.5819 482.22 81.4408 483.481 81.3581C481.755 81.5199 472.605 86.2533 472.612 88.3297C472.616 89.4832 480.441 85.8326 481.11 87.06C483.248 90.8185 463.71 107.597 461.589 108.991C452.775 114.8 436.721 120.488 446.073 136.518C453.154 148.636 456.753 132.469 464.4 135.049C475.837 138.995 470.669 162.475 463.871 155.662C462.001 152.44 466.059 154.421 465.529 154.808C467.053 153.647 463.763 143.204 464.759 143.199C456.324 143.238 458.218 153.227 456.71 159.232C454.94 166.239 454.342 166.011 447.844 169.502C441.479 172.838 436.643 176.398 431.481 182.036C429.562 184.121 426.988 189.055 424.468 190.297C421.484 191.695 417.287 188.023 414.837 190.111C414.976 192.033 415.248 193.877 415.719 195.721C414.21 201.418 396.575 191.118 407.911 204.524C411.045 208.278 414.427 206.724 416.44 212.636C418.317 217.934 417.604 223.013 413.43 226.185C405.612 231.989 391.028 220.521 384.683 229.933C382.7 232.864 377.874 259.265 379.814 263.485C382.556 269.164 384.335 264.772 388.923 266.366C392.714 267.733 392.86 271.654 397.843 272.093C413.854 273.48 416.793 258.47 423.527 246.519C426.433 241.353 431.002 237.256 435.107 233.468C435.968 232.695 435.759 229.774 436.886 229.23C440.599 227.367 441.006 229.75 444.326 229.35C449.239 228.789 452.476 223.621 456.791 223.063C464.293 222.105 460.534 229.89 464.061 232.104C469.588 236.308 496.73 249.103 484.67 257.541C482.02 259.399 475.101 255.971 474.32 260.819C473.799 263.975 482.051 268.628 484.042 268.388C483.046 268.469 490.588 259.514 490.523 259.745C490.984 258.666 494.136 247.885 492.35 250.046C494.467 247.499 498.398 251.172 499.255 249.476C499.519 248.937 461.35 215.736 477.949 214.198C476.489 214.359 481.028 221.105 481.627 221.564C482.222 220.715 482.684 219.713 482.946 218.713C479.368 221.344 491.616 229.439 493.477 229.738C493.212 229.816 490.957 230.903 490.957 230.827C493.693 234.813 499.066 232.635 501.933 236.005C504.801 239.376 503.753 243.841 504.896 247.989C506.778 254.671 511.406 268.185 518.779 268.151C519.181 269.302 519.584 270.454 519.986 271.683C521.381 271.676 519.895 264.223 519.428 263.764C521.029 265.603 523.339 261.285 524.666 260.971C526.259 260.656 527.733 264.495 528.198 264.339C527.999 264.417 517.053 248.625 517.643 246.238C516.921 248.856 524.69 248.128 525.02 247.742C524.551 246.514 523.95 245.44 523.15 244.521C523.744 243.518 524.607 243.207 525.737 243.663C525.539 244.048 525.208 244.204 524.743 244.129C524.745 244.898 535.7 243.694 537.226 243.072C544.987 240.19 541.876 243.204 540.985 235.056C540.231 228.061 540.393 217.14 546.886 212.265C548.94 210.718 559.642 213.206 560.038 212.435C559.84 212.821 556.463 215.989 556.529 215.989C559.586 216.513 559.401 220.59 562.06 221.193C564.852 221.872 566.635 219.019 569.158 218.699C576.727 217.665 583.519 222.94 590.965 224.982C598.145 227.025 605.718 227.375 612.308 231.651C619.364 236.233 625.179 247.357 634.473 245.699C631.486 246.251 620.267 228.461 619.597 226.542C615.437 214.179 625.192 211.366 633.207 205.099C633.075 205.254 624.913 187.757 625.237 185.295C626.53 174.83 643.882 179.671 650.063 181.027C653.32 181.704 666.226 187.643 668.4 182.558C670.114 178.551 663.794 175.581 662.524 173.125C660.451 168.982 661.357 161.903 657.499 160.075C653.574 158.247 651.869 164.869 647.207 161.045C642.345 156.992 646.326 155.973 646.851 153.895C647.44 151.431 650.027 150.419 650.479 146.495C650.802 143.725 649.528 140.347 648.922 137.735C646.565 128.056 635.743 109.649 640.36 99.8605C643.063 94.0802 656.546 93.7873 653.261 84.7277C651.048 78.6624 624.329 73.0178 624.205 75.71C624.08 77.9409 635.65 81.8096 633.798 84.2791C632.476 86.054 627.216 82.2331 625.754 82.0091C624.691 81.8602 621.51 83.9513 620.049 84.0349C618.853 84.1173 613.932 82.2943 612.605 82.685C606.568 84.7893 600.063 85.896 594.161 88.6918C594.36 88.6139 582.367 97.4364 584.336 90.3521C585.594 89.1927 587.053 88.4938 588.713 88.3324C585.315 85.118 580.06 82.912 575.682 84.5472C577.606 83.8462 581.83 95.5163 581.368 96.3643C582.093 94.9767 568.559 99.4227 566.572 101.124C567.438 101.966 568.172 102.962 568.774 104.036C569.115 106.957 556.007 99.9421 556.288 104.555C556.498 107.707 561.274 105.686 562.145 108.066C562.951 110.831 551.907 105.114 550.974 104.349C551.174 104.502 544.366 94.6893 544.702 95.6107C546.779 100.984 571.952 101.022 568.997 91.5764C565.573 80.5179 537.002 77.3428 529.366 78.0702C529.83 77.8374 533.479 76.5131 533.078 75.7459C531.274 72.5243 513.472 72.145 513.472 72.145ZM516.2 73.5167C516.191 70.9789 516.208 76.0545 516.2 73.5167V73.5167ZM522.907 73.0243C522.902 71.7169 522.914 75.1776 522.907 73.0243V73.0243ZM495.034 79.9205C495.026 77.7672 495.038 81.151 495.034 79.9205V79.9205ZM488.994 81.3327C488.988 79.487 489.004 84.1781 488.994 81.3327V81.3327ZM482.567 86.0535C481.562 83.2127 483.171 87.8964 482.567 86.0535V86.0535ZM487.347 85.3393C482.504 86.9767 488.209 84.8739 487.347 85.3393V85.3393ZM514.431 100.595C520.812 101.95 502.98 112.338 502.716 112.8C499.882 119.427 504.696 129.018 510.018 131.378C513.743 132.975 531.119 125.512 533.261 130.194C535.268 134.645 514.269 131.435 513.428 138.129C513.751 135.359 503.993 137.096 508.396 142.921C503.66 136.79 528.138 147.444 515.254 147.965C512.797 147.976 511.985 143.596 509.86 143.683C504.149 143.94 507.362 151.616 505.713 154.777C502.215 161.637 490.533 163.844 483.428 164.339C484.158 164.258 465.09 162.654 467.555 164.796C466.621 163.57 473.717 160.384 473.249 159.541C471.78 157.009 473.313 158.541 473.568 155.463C473.123 161.387 494.009 150.678 490.075 146.158C489.478 146.469 488.949 146.933 488.552 147.473C482.295 143.426 493.769 138.605 494.556 135.602C496.262 129.365 490.146 127.624 490.455 120.932C490.889 111.548 506.853 98.8615 514.431 100.595ZM467.23 107.581C466.373 109.507 465.116 110.82 463.392 111.674C462.329 111.679 467.219 104.197 467.23 107.581ZM456.165 115.63C454.775 116.867 456.165 115.553 456.165 115.63V115.63ZM469.197 159.405C469.206 161.866 466.739 159.263 466.738 158.802C467.732 158.259 468.53 158.409 469.197 159.405ZM505.728 159.391C504.074 161.321 508.11 156.611 505.728 159.391V159.391ZM466.147 160.727C466.153 162.65 462.968 163.433 463.092 160.818C464.155 160.89 465.151 160.808 466.147 160.727ZM445.267 173.513C443.883 176.749 446.654 171.199 445.267 173.513V173.513ZM580.342 206.574C578.947 206.503 577.953 207.123 577.293 208.28C577.325 217.893 566.823 215.48 567.607 211.631C569.109 204.088 577.294 208.51 580.342 206.574ZM511.971 258.415C511.971 258.415 511.512 260.109 510.318 260.422C509.782 259.118 509.512 257.734 509.64 256.273C510.439 257.115 511.172 257.804 511.971 258.415ZM523.523 256.747C520.06 254.148 524.455 257.435 523.523 256.747V256.747ZM519.679 259.303C518.288 260.539 519.746 259.302 519.679 259.303V259.303ZM520.95 261.835C520.95 261.835 521.871 259.216 520.95 261.835V261.835Z" fill="#2F6FED" fill-opacity="0.06"/>
<path d="M350.109 100.858C349.976 101.012 343.949 105.885 344.148 105.961C343.616 105.81 351.92 106.079 350.793 106.93C350.859 106.853 344.024 108.5 344.625 109.573C345.026 110.341 352.459 108.538 350.944 112.39C349.883 112.779 348.955 113.399 348.028 114.095C348.046 119.401 386.625 116.378 381.264 102.329C379.321 97.1857 369.17 100.539 365.786 101.632C362.602 102.646 359.291 105.661 355.902 105.292C353.51 104.995 353.614 96.5353 350.109 100.858Z" fill="#2F6FED" fill-opacity="0.06"/>
<path d="M402.388 122.462C402.256 122.616 403.268 127.38 403.535 127.686C403.668 127.839 405.579 123.216 405.576 122.447C405.643 122.6 401.859 123.079 402.388 122.462Z" fill="#2F6FED" fill-opacity="0.06"/>
<path d="M415.464 139.628C410.502 145.419 400.874 146.386 404.147 151.985C402.956 153.144 401.631 154.15 400.305 155.002C400.3 153.387 404.429 156.752 403.831 156.524C403.303 157.68 402.575 158.529 401.514 159.072C401.524 161.841 405.165 158.21 405.173 160.824C404.774 160.442 404.375 160.444 403.978 160.753C403.984 162.676 406.37 161.126 407.234 161.43C402.712 159.605 413.376 170.554 411.166 165.334C414.984 174.699 407.661 169.811 407.672 173.195C408.006 173.501 408.405 173.653 408.869 173.574C408.342 174.807 406.618 175.661 406.157 176.816C406.622 176.814 409.74 175.8 409.414 177.493C407.825 179.039 406.236 180.584 404.647 182.13C406.643 183.197 408.705 183.957 410.898 184.331C409.633 183.491 402.424 192.599 401.957 192.14C406.025 196.812 431.43 186.697 432.343 181.694C433.581 174.46 429.274 177.786 427.271 174.566C425.335 171.498 419.591 161.988 418.715 158.532C418.783 158.916 418.412 147.151 420.276 148.527C419.677 148.068 413.302 148.482 412.633 147.255C413.035 148.176 418.256 140.384 418.52 139.767C417.719 138.541 416.656 138.546 415.464 139.628ZM403.873 149.294C403.864 146.834 403.882 151.909 403.873 149.294V149.294Z" fill="#2F6FED" fill-opacity="0.06"/>
<path d="M395.615 161.868C391.237 163.58 393.832 164.799 392.71 166.957C391.721 169.269 388.129 167.517 386.939 169.368C385.75 171.219 387.618 173.671 387.552 173.825C385.97 177.294 382.535 182.847 388.318 184.435C401.482 188.143 410.144 156.725 395.615 161.868Z" fill="#2F6FED" fill-opacity="0.06"/>
<path d="M462.808 234.16C460.964 239.091 458.068 246.872 458.286 252.639C458.507 258.867 461.168 260.316 464.071 254.304C467.105 248.137 460.106 240.71 462.808 234.16Z" fill="#2F6FED" fill-opacity="0.06"/>
<path d="M524.856 277.79C522.671 279.722 533.777 283.747 536.625 281.35C536.227 281.659 525.981 276.477 524.856 277.79Z" fill="#2F6FED" fill-opacity="0.06"/>
<path d="M206.986 85.3777C207.177 85.3777 203.725 87.4541 204.364 88.3193C209.607 95.4139 218.367 82.9551 206.986 85.3777Z" fill="black" fill-opacity="0.3"/>
<path d="M59.0626 121.988C59.3794 121.493 59.8017 121.246 60.2241 121.246C59.2738 118.03 58.957 119.019 59.0626 121.988Z" fill="black" fill-opacity="0.3"/>
<path d="M189.853 154.813C190.116 153.691 190.64 152.794 191.296 152.121C191.165 151.896 190.247 152.569 188.935 153.691C189.066 154.364 189.328 154.813 189.853 154.813Z" fill="black" fill-opacity="0.3"/>
<path d="M148.785 62.7209C148.429 62.4929 148.074 62.265 147.718 61.8091C147.566 62.4929 147.566 62.9488 147.718 63.1768C147.82 63.1768 147.921 63.1768 147.972 63.1768C148.175 63.1768 148.48 62.9488 148.785 62.7209Z" fill="black" fill-opacity="0.3"/>
<path d="M234.021 67.4239C234.736 67.2568 235.166 70.5994 236.025 70.8501C238.816 71.6022 243.539 67.3403 245.614 65.5854C244.756 65.0005 234.665 59.3179 235.81 58.3987C236.597 57.7301 237.384 57.4794 237.885 57.3123C237.957 57.3123 238.1 57.3123 238.172 57.2287H238.1C238.744 56.8109 238.673 56.3095 237.17 53.8025C236.025 51.8804 231.23 48.872 229.297 50.5434C230.657 49.0392 225.934 46.95 225.791 46.8664C226.149 46.5322 226.578 46.1979 227.079 46.0308C227.079 41.4346 213.124 44.6937 210.762 44.7773C211.12 44.7773 211.835 44.1087 212.122 43.858C208.472 42.6045 195.304 50.3762 196.162 51.0448C196.305 51.2955 197.451 51.6297 198.596 51.8804C197.665 51.7969 196.663 51.8804 196.234 52.3818C195.16 53.7189 200.743 56.0588 201.673 55.5574C200.814 55.9752 192.656 65.084 191.654 63.3291C190.437 60.9892 194.23 61.2399 193.801 59.6522C193.514 58.5658 191.224 57.9808 191.224 57.8973C189.865 52.0476 188.505 50.4598 193.228 47.0336C193.729 46.6993 201.458 42.9388 201.673 43.1059C195.518 38.5933 189.507 45.6129 185.141 50.042C182.851 52.2983 181.134 54.6382 178.271 55.8081C175.909 56.8109 172.188 54.9724 170.756 58.3987C171.257 58.9836 171.83 59.485 172.474 59.9029C173.691 64.2483 154.654 58.5658 154.797 58.5658C157.875 57.3123 160.737 60.2371 163.528 59.4015C164.745 59.0672 166.749 56.2259 167.393 56.1424C173.977 55.3902 165.532 54.3039 168.395 49.3734C169.254 47.8692 173.19 47.2007 173.333 45.1951C173.548 42.5209 169.254 43.3566 169.254 45.3622C169.254 41.5181 162.526 49.2063 162.455 49.457C163.815 46.1143 156.443 46.5322 155.799 46.365C153.509 45.78 154.01 45.78 151.863 44.6101C147.068 41.8524 144.062 40.4318 138.122 41.8524C137.407 42.0195 126.958 49.9584 126.672 49.3734C129.105 55.056 137.478 48.7049 140.985 47.7857C140.269 48.7885 139.84 51.1283 139.84 51.379C139.196 51.7133 138.552 52.1311 137.908 52.4654C137.478 53.5518 147.569 54.6381 148.428 53.886C147.283 55.2231 137.407 54.9724 137.407 55.3903C137.407 55.641 142.703 59.5686 142.917 59.6522C146.639 61.2399 150.074 59.5686 153.724 58.9001C152.078 59.3179 150.861 60.8221 149.716 61.4071C149.859 61.3235 149.072 61.5742 148.285 61.7413C148.428 61.7413 148.499 61.8249 148.643 61.8249C148.499 61.992 147.927 61.992 147.14 61.992C146.997 61.992 146.853 61.992 146.782 61.992C144.349 61.7413 140.198 60.9892 137.693 61.1564C138.337 60.9057 138.91 60.655 139.554 60.4043C140.341 59.1508 127.244 56.4766 122.807 56.0588C123.022 55.641 123.308 55.3067 123.523 54.8888C123.523 54.3874 118.084 57.2287 118.012 56.5602C117.511 51.5462 117.726 55.056 114.434 54.8888C111.571 54.7217 107.063 54.6381 104.343 56.3931C101.051 55.4738 95.8269 56.978 92.6064 56.7273C87.9546 56.2259 83.2312 55.2231 78.5795 54.3875C70.3494 52.9668 62.7634 51.2955 54.4617 52.9668C49.0943 54.0532 36.4987 54.8888 32.4194 59.2343C28.7695 63.0784 34.9242 66.5882 28.2686 67.0061C28.9842 66.9225 29.4136 66.5047 29.5568 65.7526C26.9804 63.2455 15.9592 67.0896 16.1739 71.5187C16.4602 76.867 23.903 70.3487 25.8353 72.6886C25.6922 72.605 6.08311 81.5467 5.51058 82.1317C4.58022 83.1345 2.36168 85.6415 3.00577 87.3128C3.50673 88.6499 5.93998 87.6471 6.08311 88.3156C6.15468 88.7335 3.72143 93.7475 3.00577 92.9954C3.5783 93.6639 11.8084 94.2489 12.1662 93.4132C11.4506 95.0846 6.08311 98.5108 0 101.519C5.43901 99.1793 14.5279 96.2545 15.2436 96.0038C16.317 95.5024 24.9765 92.1597 29.1989 89.4856C28.698 89.8199 28.2686 90.1541 28.0539 90.4884C29.843 88.9842 42.6533 89.9034 43.0827 86.7279C42.5818 86.7279 42.2239 86.9786 41.9377 87.3964C40.721 87.3964 45.0866 83.7195 45.1581 85.7251C44.6572 86.31 44.0846 86.8114 43.5121 87.2293C43.5837 87.0621 47.5198 87.0621 47.7345 87.7307C47.5198 87.8142 47.3051 87.9814 47.162 88.0649C49.3805 87.5635 55.6068 89.402 56.394 90.2377C57.3244 91.2405 59.6145 98.5944 58.8272 100.934C59.1851 100.6 59.4713 100.266 59.8292 100.015C59.2566 100.934 58.541 101.853 57.8969 102.689C58.3978 103.023 58.8988 103.107 59.4713 103.023C57.8969 104.778 58.8272 106.115 60.187 106.283C61.1889 106.366 62.4771 105.948 63.3359 104.444C63.479 105.196 63.6937 107.118 63.6937 107.787C63.6937 105.865 61.1174 112.634 61.1889 112.383C60.688 114.723 61.3321 118.901 62.4055 121.241C62.334 120.99 60.2586 121.241 59.2566 121.241C59.7576 124.5 62.2624 131.77 63.6222 129.514C57.4675 139.876 49.7384 149.57 47.3051 162.189C46.4463 166.701 46.0885 171.799 47.4482 176.228C49.0943 181.326 52.8157 184.501 54.1755 189.85C54.748 192.106 54.3902 194.446 54.8911 196.702C55.1774 198.123 56.8234 200.546 56.8234 201.632C56.895 206.229 53.7461 203.889 56.1077 208.318C56.9665 209.906 59.1135 210.156 59.8292 211.828C60.688 213.75 59.2566 215.755 59.8292 217.343C60.2586 218.346 65.6976 223.694 66.2701 222.775C67.2005 221.271 63.98 219.599 64.2663 218.346C64.9104 214.836 63.6937 209.655 62.6918 206.396C62.334 205.309 59.9723 200.797 59.9723 200.295C60.4017 200.463 60.7595 200.797 61.0458 201.215C62.1908 199.627 53.8892 191.604 60.5448 191.27C63.7653 191.103 62.9065 200.713 63.5506 202.635C64.4094 205.059 67.4867 207.482 68.6318 210.073C69.6337 212.413 68.9896 213.917 70.6356 216.674C72.6395 220.017 74.9296 221.605 75.7168 225.867C76.2893 229.042 75.2159 232.469 76.1462 235.561C78.2932 242.58 87.3105 247.176 93.0358 249.266C96.7572 250.603 100.479 249.934 104.129 251.104C107.063 252.023 109.138 254.614 111.786 256.202C118.155 260.046 122.306 258.374 125.527 266.898C127.674 272.748 130.107 274.837 134.115 279.35C132.612 277.678 140.341 281.94 137.407 281.94C139.411 281.94 140.055 282.442 142.058 280.687C142.416 280.436 144.563 274.085 144.277 273.584C142.774 271.494 137.478 276.759 134.472 272.079C131.61 267.567 134.544 262.469 134.759 257.789C135.117 249.516 126.457 245.672 120.159 249.851C124.167 247.176 123.093 236.48 126.314 233.221C126.672 233.304 126.815 233.555 126.743 234.056C130.25 233.388 125.527 228.792 124.095 228.541C120.088 227.705 117.726 233.304 114.935 235.979C108.923 241.661 101.481 241.995 99.1905 232.302C97.3297 224.53 99.4052 215.17 103.055 208.569C109.568 196.786 115.651 200.797 125.67 201.632C126.171 201.382 126.529 201.048 126.886 200.546C126.386 193.944 135.045 196.368 137.979 197.872C141.414 199.627 141.2 200.045 142.345 203.972C143.06 206.479 142.989 215.003 146.209 215.505C151.791 216.507 148.428 197.538 149.716 193.61C151.29 188.847 155.155 186.841 158.662 184.083C161.381 181.994 165.103 176.897 168.395 176.73C168.037 176.73 167.679 178.568 167.107 178.317C170.542 180.072 167.393 167.119 169.755 166.367C169.683 166.367 169.683 170.796 169.254 171.047C171.973 169.793 171.043 164.779 173.19 163.192C173.261 163.108 184.569 155.336 188.433 153.08C187.36 150.573 205.251 137.537 206.539 140.545C206.754 141.046 200.242 144.138 201.601 146.729C202.746 148.902 206.754 145.141 208.042 144.473C210.189 143.386 223.715 139.124 219.779 134.445C222.069 137.119 209.259 139.96 210.261 137.954C209.831 138.707 216.63 137.119 215.414 136.367C215.485 136.367 211.048 135.113 210.619 134.445C210.404 134.695 210.046 135.03 209.76 135.197C209.402 133.86 209.33 132.188 211.334 130.517C211.191 130.601 209.259 131.018 209.331 130.768C210.476 130.183 211.549 129.263 212.479 128.261C213.839 124.166 205.037 127.926 200.743 129.681C201.959 128.678 203.104 127.174 204.106 126.506C207.184 124.417 209.975 123.664 213.41 123.079C216.559 122.578 219.708 122.996 222.856 122.077C226.578 120.99 229.87 118.233 233.878 118.483C233.09 119.403 224.431 127.759 224.431 129.013C224.86 128.762 225.218 128.846 225.361 129.18C220.566 134.779 227.866 132.188 231.015 132.272C231.802 132.272 235.023 131.687 235.667 133.108C235.81 133.442 234.593 135.28 235.524 135.28C235.595 135.113 235.667 134.946 235.667 134.779C237.241 134.361 242.823 131.353 239.531 131.353C239.317 131.603 239.03 131.938 238.887 132.188C237.527 132.188 240.319 130.016 239.388 130.016C238.601 130.517 237.885 131.102 237.17 131.77C236.311 131.77 239.03 128.846 239.674 128.595C239.245 128.261 238.887 128.01 238.386 127.843C238.172 126.673 239.245 125.837 238.529 124.417C238.529 124.417 233.949 125.336 234.235 124.667C234.665 124.333 235.023 123.999 235.452 123.664C234.808 122.578 233.806 123.33 233.09 122.745C235.452 121.659 236.168 120.405 237.098 118.233C237.384 117.397 234.736 118.483 234.45 118.483C234.092 118.483 237.599 113.469 237.671 112.717C238.028 109.542 236.025 108.79 234.379 107.035C229.154 101.686 230.872 99.4301 230.156 91.3241C229.441 83.2181 227.58 86.9786 223.858 90.1541C222.069 91.6583 219.35 95.4188 216.916 92.5776C214.984 90.3213 217.918 87.3964 217.918 84.973C217.918 83.8866 209.474 78.7054 209.259 78.6219C205.538 77.8698 198.452 81.5467 197.093 85.8086C197.665 85.8086 198.238 85.7251 198.81 85.7251C201.029 87.8978 193.586 91.4076 193.013 93.1625C192.441 94.9174 195.375 96.7559 194.588 99.6808C193.944 102.188 190.723 103.107 189.006 104.193C183.71 107.369 185.213 110.795 181.634 115.057C177.627 119.737 176.195 113.804 175.337 113.135C176.195 113.302 176.983 113.469 177.841 113.72C179.416 113.469 176.052 110.879 175.981 111.046C177.841 104.444 179.201 105.363 173.261 103.274C168.824 101.686 164.172 98.1765 159.449 98.1765C163.743 98.1765 157.66 89.5691 157.66 91.909C157.66 85.3908 166.606 81.9646 170.685 79.8754C176.553 76.7834 185.499 68.5103 191.797 68.5103C191.367 68.5103 184.426 75.5299 184.426 75.9477C184.354 77.4519 199.741 76.6998 199.669 75.2792C199.526 72.6886 192.799 71.3515 194.874 67.6746C194.445 68.2596 195.948 69.4295 197.594 66.6718C198.095 67.0896 198.524 67.591 198.882 68.0924C200.743 68.5938 209.116 59.485 208.758 57.9808C208.257 57.8137 207.828 57.6466 207.398 57.3123C207.684 55.8917 213.768 56.4766 214.34 57.3123C214.054 56.8945 210.905 60.9892 211.406 61.5742C210.905 60.9892 216.773 57.2287 216.773 56.3931C216.773 55.9752 214.197 57.2287 214.197 56.5602C214.197 55.3902 216.773 56.0588 216.773 54.6381C216.988 56.2259 219.493 57.1452 220.352 58.148C219.779 57.8973 217.632 57.0616 217.346 57.3123C215.199 59.8193 219.708 58.9836 219.708 60.1536C219.708 60.9892 211.692 61.7413 213.768 64.0812C214.698 65.1676 221.783 61.992 222.713 62.2427C222.212 61.7413 221.64 61.2399 221.067 60.8221C221.926 60.655 222.785 60.9057 223.572 61.4071C224.288 63.8305 215.986 69.9309 215.056 70.2652C215.199 70.1816 203.963 70.2652 206.253 73.5243C208.472 76.5327 211.621 72.5215 213.982 73.6079C216.559 74.7778 215.986 76.867 217.847 78.5383C219.708 80.2096 227.437 85.3072 230.085 83.803C230.013 83.8866 226.435 76.1149 225.218 76.0313C226.578 76.1149 231.802 81.1289 232.375 80.2096C233.377 75.6135 230.085 68.176 234.021 67.4239ZM121.09 55.9752C120.947 55.5574 121.161 55.641 121.519 55.8081C121.161 55.8081 121.018 55.8917 121.09 55.9752Z" fill="white"/>
<path d="M191.298 105.135C191.852 110.36 199.471 108 201.549 106.062C202.726 104.882 206.467 99.4886 202.519 100.163C201.272 100.416 191.09 103.281 191.298 105.135ZM203.004 103.197C203.073 103.281 202.034 104.208 201.826 103.45C201.895 102.438 202.242 102.354 203.004 103.197Z" fill="black" fill-opacity="0.3"/>
<path d="M20.2229 70.8383C22.5306 74.782 28.1642 65.4271 29.5217 63.5928C28.8429 63.9596 28.232 64.3265 27.6212 64.6934C26.4673 65.3354 18.9333 68.5454 20.2229 70.8383Z" fill="black" fill-opacity="0.3"/>
<path d="M273.188 353.295C269.41 343.201 255.008 342.121 247.5 338.127C247.5 338.127 234.279 329.005 231.87 332.459C231.918 331.65 231.87 330.786 231.729 329.976C230.879 329.275 229.982 328.735 228.943 328.411C227.432 325.766 227.007 324.578 226.015 321.556C224.079 315.51 222.426 310.22 217.043 307.143C210.621 303.473 206.135 304.876 200.705 298.507C199.855 297.481 191.214 290.734 191.214 290.356C191.214 289.816 192.158 286.2 192.914 287.279C191.497 285.174 180.259 288.089 178.465 287.765C177.473 287.603 168.36 281.558 168.548 281.504C167.462 281.99 165.101 288.899 163.449 286.794C162.174 285.12 165.574 283.177 165.621 281.774C165.101 280.64 164.299 280.37 163.165 280.91C157.452 283.231 155.374 288.251 150.935 292.03C146.119 296.078 146.072 291.544 140.783 291.544C144.23 291.544 145.458 309.788 144.986 312.001C142.766 322.527 135.447 326.684 136.156 337.911C136.297 340.502 136.817 340.394 136.203 342.877C135.778 344.604 133.842 345.36 133.511 347.735C132.85 352.431 136.628 356.102 138.894 359.394C145.316 368.571 147.772 380.824 155.469 388.974C161.89 395.776 168.973 397.989 171.24 408.731C173.79 420.822 171.807 433.884 172.893 446.245C174.026 459.092 171.996 471.939 174.593 484.57C175.112 487.107 175.962 495.797 178.181 497.201C182.289 499.792 178.701 494.232 178.984 492.073C178.937 492.505 180.542 491.317 180.165 491.101C182.289 492.289 183.281 501.627 181.298 502.383C181.345 501.195 180.873 500.224 179.928 499.468C180.07 499.846 179.031 501.897 178.512 503.031C179.078 503.192 180.117 506.215 180.117 506.161C180.495 507.835 179.645 510.102 179.928 511.559C180.731 511.019 181.534 510.911 182.431 511.181C183.187 512.423 183.139 513.61 182.195 514.798C182.903 517.443 182.526 519.332 184.037 522.355C185.217 524.73 193.858 531.963 193.858 533.636C193.056 533.906 192.206 533.852 191.45 533.474C192.725 536.065 197.919 535.579 198.722 537.847C198.203 537.469 197.636 537.253 197.022 537.145C197.022 538.17 211.094 546.483 213.077 544.216C212.841 543.73 212.605 543.244 212.368 542.759C212.699 542.651 214.588 541.841 216.052 541.139C212.227 539.304 206.56 533.42 204.908 530.505C201.036 523.542 209.063 517.605 206.135 512.477C205.144 510.749 201.413 511.775 200.705 509.454C199.619 505.783 203.161 505.352 204.105 502.599C204.577 501.249 205.522 496.715 205.522 496.121C206.749 495.636 207.033 494.88 206.277 493.8C205.569 493.692 204.908 493.422 204.294 492.991C204.955 494.556 198.486 488.888 200.989 488.294C202.641 487.539 205.663 490.454 207.08 489.158C209.063 487.323 207.127 486.189 207.694 484.3C208.26 482.411 206.844 482.789 208.166 481.169C209.441 479.658 214.116 479.928 215.863 478.794C220.443 475.879 219.829 460.766 213.549 462.115C218.224 461.089 220.915 466.973 225.59 463.842C226.959 462.925 232.862 453.209 232.154 451.049C232.059 450.78 230.406 453.209 229.887 452.561C230.123 452.723 231.681 447.379 232.295 447.379C232.626 448.081 232.909 448.89 233.098 449.7C236.215 450.888 236.734 435.396 237.017 433.561C237.537 430.106 237.584 429.026 239.803 426.435C240.275 425.896 246.272 422.171 246.272 422.063C246.272 419.364 251.75 418.824 253.119 418.015C256.661 415.964 258.172 414.074 259.636 409.81C263.177 399.662 260.769 388.111 264.783 378.071C267.757 370.622 276.588 362.363 273.188 353.295Z" fill="white"/>
<path d="M354.249 9.45257C348.431 5.36945 341.464 9.78588 336.652 10.3692C337.37 10.2859 337.945 6.61939 339.238 7.11936C331.193 4.11952 320.994 4.70282 312.805 5.28612C306.485 5.70277 300.02 6.3694 293.7 6.45273C293.7 6.3694 295.495 8.20263 294.921 8.28596C288.313 8.28596 217.133 3.78621 217.133 9.61923C217.133 9.61923 220.365 12.1191 220.294 12.1191C217.205 12.4524 205.425 6.9527 203.989 13.7023C202.481 21.0353 215.625 16.3689 217.708 19.2021C217.636 19.1187 204.851 21.7019 204.851 22.4519C205.138 22.4519 205.354 22.5352 205.425 22.7852C205.354 22.9519 195.083 21.3686 193.359 22.1186C193.646 22.0352 194.795 24.3685 194.364 24.8684C194.005 25.4517 189.839 25.6184 189.121 25.4517C195.154 19.2854 181.651 24.4518 181.507 24.3685C181.938 24.7018 177.844 22.4519 178.347 23.8685C179.568 27.6183 184.309 25.785 186.535 26.3683C187.397 26.6183 189.552 29.0349 189.408 29.0349C191.635 28.8682 196.663 22.8685 198.387 25.2017C198.817 25.785 197.525 28.2016 197.022 28.0349C199.536 28.6182 224.459 29.7015 222.089 25.1184C219.503 20.202 207.724 30.4515 204.564 24.3685C205.066 25.3684 221.586 21.7019 221.586 23.3685C221.155 23.4518 221.012 23.6185 221.012 24.0351C222.017 23.9518 223.023 23.9518 224.1 23.8685C223.957 24.2851 223.597 24.6184 223.167 24.7851C223.167 24.8684 229.415 22.6185 229.415 21.7019C228.913 21.4519 228.338 21.2853 227.763 21.1186C230.636 15.6189 247.013 14.619 251.825 13.0357C254.698 12.1191 267.627 5.53611 270.069 8.78594C270.356 9.11926 256.494 11.8691 256.135 12.8691C257.212 13.2857 258.289 13.619 259.367 13.7857C259.367 16.0356 243.709 16.8688 240.836 18.3688C241.626 18.6188 243.637 18.9521 244.212 19.6187C243.637 19.2854 240.764 19.702 240.405 20.2853C239.184 22.2852 259.439 24.8684 262.096 25.4517C261.378 25.4517 263.102 27.7016 263.389 27.7016C263.245 28.1183 262.24 29.8682 262.168 29.7015C262.815 30.9514 262.958 29.8682 261.809 31.5347C262.312 31.4514 262.743 31.3681 263.245 31.2848C264.251 33.0347 260.444 35.7012 261.019 37.1178C261.665 38.6177 263.676 36.5345 264.395 38.2844C264.107 38.3677 263.748 38.5344 263.461 38.6177C263.461 40.5343 265.544 37.6177 265.113 37.6177C268.992 37.6177 265.328 40.4509 264.538 40.8676C262.096 42.2842 260.803 39.2843 259.008 43.2841C260.516 44.4507 263.82 45.3673 265.328 43.3674C265.4 43.7008 265.472 43.8674 265.472 43.7841C265.688 45.8673 264.179 46.034 263.174 47.1173C259.295 51.4504 256.494 50.1171 257.428 58.2833C258.505 67.5328 264.897 79.7822 273.588 72.1992C276.605 69.5327 278.329 65.283 280.771 62.0331C285.152 56.0334 289.534 57.1167 295.424 54.3669C299.949 52.2003 303.54 48.7838 308.352 47.2006C314.529 45.1174 320.994 44.7007 326.955 41.7842C326.021 41.7009 320.275 39.7843 319.844 40.3676C320.419 39.5343 323.651 39.8676 324.298 40.2843C324.226 40.4509 324.154 40.4509 324.01 40.4509C330.044 38.951 325.662 37.9511 327.602 34.1179C329.613 30.1181 337.945 31.2014 340.028 27.035C340.674 25.9517 337.226 26.6183 335.862 27.2016C336.293 25.7017 336.005 21.4519 335.143 21.8686C336.58 20.8686 338.519 23.5352 338.304 24.2851C338.735 23.7018 340.171 21.2853 340.171 21.1186C339.166 20.452 338.16 20.0353 337.011 19.952C337.585 19.7854 338.232 19.702 338.807 19.702C339.381 19.2854 337.011 18.0355 336.005 17.9521C337.011 17.1188 339.453 14.619 339.812 14.4523C341.105 13.9523 353.244 8.78594 354.249 9.45257ZM215.625 17.5355C214.691 18.4521 214.547 18.4521 215.122 17.5355C215.984 16.6189 216.199 16.6189 215.625 17.5355ZM221.155 14.2857C220.006 13.9523 221.012 13.5357 222.233 13.2024C221.874 13.4524 221.515 13.7857 221.155 14.2857ZM229.559 12.1191C229.2 11.4525 228.482 13.9523 229.415 13.7857C227.907 14.2023 228.553 10.2025 229.559 12.1191ZM263.964 41.5342C264.467 40.7843 264.898 42.0342 265.185 43.0341C264.826 42.4508 264.467 41.9509 263.964 41.5342ZM323.077 32.4514C323.436 32.2847 325.806 32.4514 325.088 32.7847C324.8 33.0347 324.441 33.368 324.154 33.618C324.082 33.9513 325.519 35.2012 325.447 35.2845C324.082 36.4511 323.795 32.2014 323.077 32.4514ZM333.851 8.70261C332.63 9.45257 332.27 9.45257 332.773 8.70261C333.994 8.03598 334.353 8.03598 333.851 8.70261Z" fill="#2F6FED" fill-opacity="0.06"/>
<path d="M206.986 85.3777C207.177 85.3777 203.725 87.4541 204.364 88.3193C209.607 95.4139 218.367 82.9551 206.986 85.3777Z" fill="black" fill-opacity="0.3"/>
<path d="M59.0626 121.988C59.3794 121.493 59.8017 121.246 60.2241 121.246C59.2738 118.03 58.957 119.019 59.0626 121.988Z" fill="black" fill-opacity="0.3"/>
<path d="M189.853 154.813C190.116 153.691 190.64 152.794 191.296 152.121C191.165 151.896 190.247 152.569 188.935 153.691C189.066 154.364 189.328 154.813 189.853 154.813Z" fill="black" fill-opacity="0.3"/>
<path d="M148.785 62.7209C148.429 62.4929 148.074 62.265 147.718 61.8091C147.566 62.4929 147.566 62.9488 147.718 63.1768C147.82 63.1768 147.921 63.1768 147.972 63.1768C148.175 63.1768 148.48 62.9488 148.785 62.7209Z" fill="black" fill-opacity="0.3"/>
<path d="M234.021 67.4239C234.736 67.2568 235.166 70.5994 236.025 70.8501C238.816 71.6022 243.539 67.3403 245.614 65.5854C244.756 65.0005 234.665 59.3179 235.81 58.3987C236.597 57.7301 237.384 57.4794 237.885 57.3123C237.957 57.3123 238.1 57.3123 238.172 57.2287H238.1C238.744 56.8109 238.673 56.3095 237.17 53.8025C236.025 51.8804 231.23 48.872 229.297 50.5434C230.657 49.0392 225.934 46.95 225.791 46.8664C226.149 46.5322 226.578 46.1979 227.079 46.0308C227.079 41.4346 213.123 44.6937 210.762 44.7772C211.12 44.7772 211.835 44.1087 212.122 43.858C208.472 42.6045 195.304 50.3762 196.162 51.0448C196.305 51.2955 197.451 51.6297 198.596 51.8804C197.665 51.7969 196.663 51.8804 196.234 52.3818C195.16 53.7189 200.743 56.0588 201.673 55.5574C200.814 55.9752 192.656 65.084 191.654 63.3291C190.437 60.9892 194.23 61.2399 193.801 59.6522C193.514 58.5658 191.224 57.9808 191.224 57.8973C189.865 52.0476 188.505 50.4598 193.228 47.0336C193.729 46.6993 201.458 42.9388 201.673 43.1059C195.518 38.5933 189.507 45.6129 185.141 50.042C182.851 52.2983 181.134 54.6381 178.271 55.8081C175.909 56.8109 172.188 54.9724 170.756 58.3987C171.257 58.9836 171.83 59.485 172.474 59.9029C173.691 64.2483 154.654 58.5658 154.797 58.5658C157.875 57.3123 160.737 60.2371 163.528 59.4015C164.745 59.0672 166.749 56.2259 167.393 56.1423C173.977 55.3902 165.532 54.3039 168.395 49.3734C169.254 47.8692 173.19 47.2007 173.333 45.1951C173.548 42.5209 169.254 43.3566 169.254 45.3622C169.254 41.5181 162.526 49.2063 162.455 49.457C163.815 46.1143 156.443 46.5322 155.799 46.365C153.509 45.78 154.01 45.78 151.863 44.6101C147.068 41.8524 144.062 40.4318 138.122 41.8524C137.407 42.0195 126.958 49.9584 126.672 49.3734C129.105 55.056 137.478 48.7049 140.985 47.7857C140.269 48.7885 139.84 51.1283 139.84 51.379C139.196 51.7133 138.552 52.1311 137.908 52.4654C137.478 53.5518 147.569 54.6381 148.428 53.886C147.283 55.2231 137.407 54.9724 137.407 55.3903C137.407 55.641 142.703 59.5686 142.917 59.6522C146.639 61.2399 150.074 59.5686 153.724 58.9001C152.078 59.3179 150.861 60.8221 149.716 61.4071C149.859 61.3235 149.072 61.5742 148.285 61.7413C148.428 61.7413 148.499 61.8249 148.643 61.8249C148.499 61.992 147.927 61.992 147.14 61.992C146.997 61.992 146.853 61.992 146.782 61.992C144.349 61.7413 140.198 60.9892 137.693 61.1564C138.337 60.9057 138.91 60.655 139.554 60.4043C140.341 59.1508 127.244 56.4766 122.807 56.0588C123.022 55.641 123.308 55.3067 123.523 54.8888C123.523 54.3874 118.084 57.2287 118.012 56.5602C117.511 51.5462 117.726 55.056 114.434 54.8888C111.571 54.7217 107.063 54.6381 104.343 56.3931C101.051 55.4738 95.8269 56.978 92.6064 56.7273C87.9546 56.2259 83.2312 55.2231 78.5795 54.3875C70.3494 52.9668 62.7634 51.2955 54.4617 52.9668C49.0943 54.0532 36.4987 54.8888 32.4194 59.2343C28.7695 63.0784 34.9242 66.5882 28.2686 67.0061C28.9842 66.9225 29.4136 66.5047 29.5567 65.7525C26.9804 63.2455 15.9592 67.0896 16.1739 71.5187C16.4602 76.867 23.903 70.3487 25.8353 72.6886C25.6922 72.605 6.08311 81.5467 5.51058 82.1317C4.58022 83.1345 2.36168 85.6415 3.00577 87.3128C3.50673 88.6499 5.93998 87.6471 6.08311 88.3156C6.15467 88.7335 3.72143 93.7475 3.00577 92.9954C3.5783 93.6639 11.8084 94.2489 12.1662 93.4132C11.4506 95.0846 6.08311 98.5108 0 101.519C5.43901 99.1793 14.5279 96.2545 15.2436 96.0038C16.317 95.5024 24.9765 92.1597 29.1989 89.4856C28.698 89.8198 28.2686 90.1541 28.0539 90.4884C29.843 88.9842 42.6533 89.9034 43.0827 86.7279C42.5818 86.7279 42.2239 86.9786 41.9377 87.3964C40.7211 87.3964 45.0866 83.7195 45.1581 85.7251C44.6572 86.31 44.0846 86.8114 43.5121 87.2293C43.5837 87.0621 47.5198 87.0621 47.7345 87.7307C47.5198 87.8142 47.3051 87.9814 47.162 88.0649C49.3805 87.5635 55.6068 89.402 56.394 90.2377C57.3244 91.2405 59.6145 98.5944 58.8272 100.934C59.1851 100.6 59.4713 100.266 59.8292 100.015C59.2566 100.934 58.541 101.853 57.8969 102.689C58.3978 103.023 58.8988 103.107 59.4713 103.023C57.8969 104.778 58.8273 106.115 60.187 106.283C61.1889 106.366 62.4771 105.948 63.3359 104.444C63.479 105.196 63.6937 107.118 63.6937 107.787C63.6937 105.865 61.1173 112.634 61.1889 112.383C60.688 114.723 61.3321 118.901 62.4055 121.241C62.334 120.99 60.2586 121.241 59.2566 121.241C59.7576 124.5 62.2624 131.77 63.6222 129.514C57.4675 139.876 49.7384 149.57 47.3051 162.189C46.4463 166.701 46.0885 171.799 47.4483 176.228C49.0943 181.326 52.8157 184.501 54.1755 189.85C54.748 192.106 54.3902 194.446 54.8911 196.702C55.1774 198.123 56.8234 200.546 56.8234 201.632C56.895 206.229 53.7461 203.889 56.1077 208.318C56.9665 209.906 59.1135 210.156 59.8292 211.828C60.688 213.75 59.2566 215.755 59.8292 217.343C60.2586 218.346 65.6976 223.694 66.2701 222.775C67.2005 221.271 63.98 219.599 64.2663 218.346C64.9104 214.836 63.6937 209.655 62.6918 206.396C62.334 205.309 59.9723 200.797 59.9723 200.295C60.4017 200.463 60.7595 200.797 61.0458 201.215C62.1908 199.627 53.8892 191.604 60.5448 191.27C63.7653 191.103 62.9065 200.713 63.5506 202.635C64.4094 205.059 67.4867 207.482 68.6318 210.073C69.6337 212.413 68.9896 213.917 70.6356 216.674C72.6395 220.017 74.9296 221.605 75.7168 225.867C76.2893 229.042 75.2158 232.469 76.1462 235.561C78.2932 242.58 87.3105 247.176 93.0358 249.266C96.7572 250.603 100.479 249.934 104.129 251.104C107.063 252.023 109.138 254.614 111.786 256.202C118.155 260.046 122.306 258.374 125.527 266.898C127.674 272.748 130.107 274.837 134.115 279.35C132.612 277.678 140.341 281.94 137.407 281.94C139.411 281.94 140.055 282.442 142.058 280.687C142.416 280.436 144.563 274.085 144.277 273.584C142.774 271.494 137.478 276.759 134.472 272.079C131.61 267.567 134.544 262.469 134.759 257.789C135.117 249.516 126.457 245.672 120.159 249.851C124.167 247.176 123.093 236.48 126.314 233.221C126.672 233.304 126.815 233.555 126.743 234.056C130.25 233.388 125.527 228.792 124.095 228.541C120.088 227.705 117.726 233.304 114.935 235.978C108.923 241.661 101.481 241.995 99.1905 232.302C97.3297 224.53 99.4052 215.17 103.055 208.568C109.568 196.786 115.651 200.797 125.67 201.632C126.171 201.382 126.529 201.047 126.886 200.546C126.386 193.944 135.045 196.368 137.979 197.872C141.414 199.627 141.2 200.045 142.345 203.972C143.06 206.479 142.989 215.003 146.209 215.505C151.791 216.507 148.428 197.538 149.716 193.61C151.29 188.847 155.155 186.841 158.662 184.083C161.381 181.994 165.103 176.897 168.395 176.729C168.037 176.729 167.679 178.568 167.107 178.317C170.542 180.072 167.393 167.119 169.755 166.367C169.683 166.367 169.683 170.796 169.254 171.047C171.973 169.793 171.043 164.779 173.19 163.192C173.261 163.108 184.569 155.336 188.433 153.08C187.36 150.573 205.251 137.537 206.539 140.545C206.754 141.046 200.242 144.138 201.601 146.729C202.746 148.902 206.754 145.141 208.042 144.473C210.189 143.386 223.715 139.124 219.779 134.445C222.069 137.119 209.259 139.96 210.261 137.954C209.831 138.707 216.63 137.119 215.414 136.367C215.485 136.367 211.048 135.113 210.619 134.445C210.404 134.695 210.046 135.03 209.76 135.197C209.402 133.86 209.331 132.188 211.334 130.517C211.191 130.601 209.259 131.018 209.331 130.768C210.476 130.183 211.549 129.263 212.479 128.261C213.839 124.166 205.037 127.926 200.743 129.681C201.959 128.678 203.104 127.174 204.106 126.506C207.184 124.417 209.975 123.664 213.41 123.079C216.559 122.578 219.708 122.996 222.856 122.077C226.578 120.99 229.87 118.233 233.878 118.483C233.09 119.403 224.431 127.759 224.431 129.013C224.86 128.762 225.218 128.846 225.361 129.18C220.566 134.779 227.866 132.188 231.015 132.272C231.802 132.272 235.023 131.687 235.667 133.108C235.81 133.442 234.593 135.28 235.524 135.28C235.595 135.113 235.667 134.946 235.667 134.779C237.241 134.361 242.823 131.353 239.531 131.353C239.317 131.603 239.03 131.938 238.887 132.188C237.527 132.188 240.319 130.016 239.388 130.016C238.601 130.517 237.885 131.102 237.17 131.77C236.311 131.77 239.03 128.846 239.674 128.595C239.245 128.261 238.887 128.01 238.386 127.843C238.172 126.673 239.245 125.837 238.529 124.417C238.529 124.417 233.949 125.336 234.235 124.667C234.665 124.333 235.023 123.999 235.452 123.664C234.808 122.578 233.806 123.33 233.09 122.745C235.452 121.659 236.168 120.405 237.098 118.233C237.384 117.397 234.736 118.483 234.45 118.483C234.092 118.483 237.599 113.469 237.671 112.717C238.028 109.542 236.025 108.79 234.379 107.035C229.154 101.686 230.872 99.43 230.156 91.3241C229.441 83.2181 227.58 86.9786 223.858 90.1541C222.069 91.6583 219.35 95.4188 216.916 92.5776C214.984 90.3212 217.918 87.3964 217.918 84.9729C217.918 83.8866 209.474 78.7054 209.259 78.6219C205.538 77.8698 198.452 81.5467 197.093 85.8086C197.665 85.8086 198.238 85.7251 198.81 85.7251C201.029 87.8978 193.586 91.4076 193.013 93.1625C192.441 94.9174 195.375 96.7559 194.588 99.6807C193.944 102.188 190.723 103.107 189.006 104.193C183.71 107.369 185.213 110.795 181.634 115.057C177.627 119.737 176.195 113.804 175.337 113.135C176.195 113.302 176.983 113.469 177.841 113.72C179.416 113.469 176.052 110.879 175.981 111.046C177.841 104.444 179.201 105.363 173.261 103.274C168.824 101.686 164.172 98.1765 159.449 98.1765C163.743 98.1765 157.66 89.5691 157.66 91.909C157.66 85.3908 166.606 81.9646 170.685 79.8754C176.553 76.7834 185.499 68.5103 191.797 68.5103C191.367 68.5103 184.426 75.5299 184.426 75.9477C184.354 77.4519 199.741 76.6998 199.669 75.2792C199.526 72.6886 192.799 71.3515 194.874 67.6746C194.445 68.2596 195.948 69.4295 197.594 66.6718C198.095 67.0896 198.524 67.591 198.882 68.0924C200.743 68.5938 209.116 59.485 208.758 57.9808C208.257 57.8137 207.828 57.6466 207.398 57.3123C207.684 55.8917 213.768 56.4766 214.34 57.3123C214.054 56.8945 210.905 60.9892 211.406 61.5742C210.905 60.9892 216.773 57.2287 216.773 56.3931C216.773 55.9752 214.197 57.2287 214.197 56.5602C214.197 55.3902 216.773 56.0588 216.773 54.6381C216.988 56.2259 219.493 57.1452 220.352 58.148C219.779 57.8973 217.632 57.0616 217.346 57.3123C215.199 59.8193 219.708 58.9836 219.708 60.1536C219.708 60.9892 211.692 61.7413 213.768 64.0812C214.698 65.1676 221.783 61.992 222.713 62.2427C222.212 61.7413 221.64 61.2399 221.067 60.8221C221.926 60.655 222.785 60.9057 223.572 61.4071C224.288 63.8305 215.986 69.9309 215.056 70.2652C215.199 70.1816 203.963 70.2652 206.253 73.5243C208.472 76.5327 211.621 72.5215 213.982 73.6079C216.559 74.7778 215.986 76.867 217.847 78.5383C219.708 80.2096 227.437 85.3072 230.085 83.803C230.013 83.8866 226.435 76.1149 225.218 76.0313C226.578 76.1149 231.802 81.1289 232.375 80.2096C233.377 75.6135 230.085 68.176 234.021 67.4239ZM121.09 55.9752C120.947 55.5574 121.161 55.641 121.519 55.8081C121.161 55.8081 121.018 55.8917 121.09 55.9752Z" fill="#2F6FED" fill-opacity="0.06"/>
<path d="M20.2229 70.8383C22.5306 74.782 28.1642 65.4271 29.5217 63.5928C28.8429 63.9596 28.232 64.3265 27.6212 64.6934C26.4673 65.3354 18.9333 68.5454 20.2229 70.8383Z" fill="black" fill-opacity="0.3"/>
<path d="M273.188 353.295C269.41 343.201 255.008 342.121 247.5 338.127C247.5 338.127 234.279 329.005 231.87 332.459C231.918 331.65 231.87 330.786 231.729 329.976C230.879 329.275 229.982 328.735 228.943 328.411C227.432 325.766 227.007 324.578 226.015 321.556C224.079 315.51 222.426 310.22 217.043 307.143C210.621 303.473 206.135 304.876 200.705 298.507C199.855 297.481 191.214 290.734 191.214 290.356C191.214 289.816 192.158 286.2 192.914 287.279C191.497 285.174 180.259 288.089 178.465 287.765C177.473 287.603 168.36 281.558 168.548 281.504C167.462 281.99 165.101 288.899 163.449 286.794C162.174 285.12 165.574 283.177 165.621 281.774C165.101 280.64 164.299 280.37 163.165 280.91C157.452 283.231 155.374 288.251 150.935 292.03C146.119 296.078 146.072 291.544 140.783 291.544C144.23 291.544 145.458 309.788 144.986 312.001C142.766 322.527 135.447 326.684 136.156 337.911C136.297 340.502 136.817 340.394 136.203 342.877C135.778 344.604 133.842 345.36 133.511 347.735C132.85 352.431 136.628 356.102 138.894 359.394C145.316 368.571 147.772 380.824 155.469 388.974C161.89 395.776 168.973 397.989 171.24 408.731C173.79 420.822 171.807 433.884 172.893 446.245C174.026 459.092 171.996 471.939 174.593 484.57C175.112 487.107 175.962 495.797 178.181 497.201C182.289 499.792 178.701 494.232 178.984 492.073C178.937 492.505 180.542 491.317 180.165 491.101C182.289 492.289 183.281 501.627 181.298 502.383C181.345 501.195 180.873 500.224 179.928 499.468C180.07 499.846 179.031 501.897 178.512 503.031C179.078 503.192 180.117 506.215 180.117 506.161C180.495 507.835 179.645 510.102 179.928 511.559C180.731 511.019 181.534 510.911 182.431 511.181C183.187 512.423 183.139 513.61 182.195 514.798C182.903 517.443 182.526 519.332 184.037 522.355C185.217 524.73 193.858 531.963 193.858 533.636C193.056 533.906 192.206 533.852 191.45 533.474C192.725 536.065 197.919 535.579 198.722 537.847C198.203 537.469 197.636 537.253 197.022 537.145C197.022 538.17 211.094 546.483 213.077 544.216C212.841 543.73 212.605 543.244 212.368 542.759C212.699 542.651 214.588 541.841 216.052 541.139C212.227 539.304 206.56 533.42 204.908 530.505C201.036 523.542 209.063 517.605 206.135 512.477C205.144 510.749 201.413 511.775 200.705 509.454C199.619 505.783 203.161 505.352 204.105 502.599C204.577 501.249 205.522 496.715 205.522 496.121C206.749 495.636 207.033 494.88 206.277 493.8C205.569 493.692 204.908 493.422 204.294 492.991C204.955 494.556 198.486 488.888 200.989 488.294C202.641 487.539 205.663 490.454 207.08 489.158C209.063 487.323 207.127 486.189 207.694 484.3C208.26 482.411 206.844 482.789 208.166 481.169C209.441 479.658 214.116 479.928 215.863 478.794C220.443 475.879 219.829 460.766 213.549 462.115C218.224 461.089 220.915 466.973 225.59 463.842C226.959 462.925 232.862 453.209 232.154 451.049C232.059 450.78 230.406 453.209 229.887 452.561C230.123 452.723 231.681 447.379 232.295 447.379C232.626 448.081 232.909 448.89 233.098 449.7C236.215 450.888 236.734 435.396 237.017 433.561C237.537 430.106 237.584 429.026 239.803 426.435C240.275 425.896 246.272 422.171 246.272 422.063C246.272 419.364 251.75 418.824 253.119 418.015C256.661 415.964 258.172 414.074 259.636 409.81C263.177 399.662 260.769 388.111 264.783 378.071C267.757 370.622 276.588 362.363 273.188 353.295Z" fill="#2F6FED" fill-opacity="0.06"/>
<path d="M814.168 15.7779C812.859 17.0127 799.277 8.08377 796.331 8.93867C795.513 9.22364 794.695 9.5086 793.795 9.79357C794.04 10.2685 794.368 10.5535 794.777 10.7435C794.122 10.7435 793.468 10.9334 792.895 11.5034C792.404 14.0681 811.877 17.8676 814.168 15.7779Z" fill="#2F6FED" fill-opacity="0.06"/>
<path d="M979.442 205.569C979.442 205.569 979.36 205.663 979.278 205.758C979.523 205.569 979.523 205.569 979.442 205.569Z" fill="#2F6FED" fill-opacity="0.06"/>
<path d="M757.47 225.992C757.306 225.707 757.143 225.422 756.897 225.232C757.143 225.802 757.388 226.087 757.47 225.992Z" fill="#2F6FED" fill-opacity="0.06"/>
<path d="M1067.48 62.4166C1068.3 62.2267 1069.03 61.9417 1069.69 61.2768C1071.32 54.8175 1003.99 45.8886 1003.58 44.6537C1004.23 46.6485 1007.91 48.2633 1009.55 49.1182C1008.08 49.1182 1002.51 48.8332 1001.86 47.4084C1002.11 47.8833 1004.07 46.4585 1003.09 46.4585C1002.19 46.6485 1000.71 46.3635 999.732 46.2685C1000.71 46.0785 1001.7 45.7936 1002.68 45.6036C988.523 46.8384 976.414 43.9888 962.423 41.804C949.741 39.8093 936.487 32.2101 923.56 35.2498C923.641 35.2498 925.032 36.3897 925.196 36.5796C924.705 36.5796 921.923 36.2947 922.251 37.3395C922.578 38.0045 925.605 39.6193 926.423 40.0942C921.514 38.8594 913.823 38.5744 909.16 38.5744C908.751 39.4293 908.751 40.3792 909.078 41.2341C905.56 37.5295 881.996 29.8354 881.996 32.5901C882.487 33.35 883.06 34.0149 883.714 34.5849C883.714 34.8698 864.569 32.4001 856.551 31.3552C856.141 31.0703 855.732 31.0703 855.323 31.1653C853.932 30.9753 853.114 30.8803 853.114 30.8803C853.523 30.7853 845.096 35.3448 846.078 33.54C847.551 30.1204 853.605 31.7352 854.178 27.7457C854.751 23.8511 849.923 23.2812 847.469 22.9012C843.46 22.1413 839.941 21.9513 836.014 20.8115C832.169 19.6716 827.832 17.6768 823.905 19.6716C820.714 21.2864 819.569 23.8511 815.641 24.611C812.205 25.3709 808.769 24.611 805.332 25.5609C804.105 25.9409 794.123 30.8803 793.796 30.5003C794.205 30.8803 797.641 29.9304 798.132 31.3552C797.887 30.6903 786.678 32.6851 785.369 32.6851C787.251 34.9648 789.951 36.9596 792.651 38.0045C789.132 36.9596 782.178 35.3448 781.278 36.6746C781.36 37.3395 781.769 37.7195 782.341 37.7195C781.441 37.9095 780.623 38.1944 779.723 38.5744C779.56 38.9544 783.241 41.0441 783.569 40.8541C780.869 42.469 777.514 35.0598 775.06 34.0149C776.041 35.2498 775.714 39.9992 774.323 40.4742C775.632 39.9992 777.187 45.3186 778.005 46.0785C780.214 48.2633 782.178 48.0733 784.878 48.5482C784.223 48.6432 783.569 48.6432 782.832 48.7382C783.323 48.2633 783.896 64.9813 777.596 57.7622C777.923 58.1421 779.887 54.8175 780.051 54.2476C780.869 51.2079 779.314 50.448 777.923 48.0733C775.223 43.7038 770.969 36.3897 766.387 34.7748C766.796 34.4899 767.287 34.3949 767.86 34.3949C768.187 34.0149 764.178 33.635 763.032 34.8698C763.687 34.1099 760.087 42.8489 759.923 41.614C760.169 44.2737 768.351 51.018 768.514 50.923C767.369 51.6829 761.641 47.1234 761.151 49.0232C760.332 52.7278 764.26 51.4929 760.905 56.1474C759.187 58.5221 755.505 57.8572 753.869 60.0419C749.696 65.5513 755.996 74.7652 757.632 80.7495C758.614 84.1691 760.66 89.9634 759.923 93.763C759.514 96.0427 758.041 97.2776 757.632 98.7024C756.896 100.982 754.851 101.932 758.941 104.592C761.232 106.112 764.096 103.452 765.405 104.212C767.369 105.447 770.069 112.476 771.296 115.895C771.951 117.7 775.223 117.415 773.096 120.17C771.623 122.07 767.86 120.17 766.141 119.885C762.296 119.22 746.423 114.281 743.151 119.695C739.06 126.439 748.796 132.898 751.251 136.413C751.087 136.223 755.014 143.632 753.787 142.872C752.232 141.732 747.651 142.587 746.832 144.677C745.441 148.287 748.305 148.667 750.187 150.851C755.26 156.646 756.978 161.965 759.269 169.944C760.987 176.023 762.296 180.298 755.26 179.063C752.314 178.493 747.651 176.213 746.832 172.414C745.851 168.044 749.941 167.285 749.941 164.055C749.941 164.53 735.541 155.126 734.887 154.746C730.714 152.371 719.587 146.957 714.923 148.572C718.441 152.561 728.505 161.205 716.478 161.205C712.387 161.205 708.541 158.451 704.532 157.691C698.805 156.551 692.914 157.881 687.514 160.065C687.76 159.97 675.896 165.67 675.896 164.34C675.896 165.86 678.923 169.279 679.496 171.369C678.841 170.514 678.432 170.609 678.269 171.749C678.596 171.179 683.178 179.443 680.805 178.208C683.26 179.538 686.614 180.393 691.523 181.058C691.196 180.963 693.323 179.253 693.896 179.158C695.451 178.873 697.005 181.628 698.478 181.723C701.914 182.008 705.678 176.498 708.541 179.538C710.26 181.343 707.396 191.697 706.66 194.166C705.76 197.111 704.778 199.771 702.896 202.05C701.587 203.57 699.623 203 698.805 205.09C696.432 210.979 705.023 215.824 707.805 218.674C712.387 223.423 714.841 229.217 717.296 235.582C720.078 242.801 723.023 248.12 727.523 254.199C728.832 256.004 735.623 263.223 733.987 265.883C734.069 265.788 731.941 263.223 731.205 262.748C731.287 262.938 730.632 263.413 730.06 263.603C731.941 266.928 736.441 279.751 736.278 279.656C743.969 288.395 772.032 264.078 777.76 258.379C781.196 254.864 780.541 253.155 782.505 248.975C783.896 246.125 787.169 245.08 786.841 240.901C786.432 236.247 782.26 235.962 779.805 233.587C776.614 230.357 778.005 226.273 775.387 223.328C777.105 225.323 768.269 231.117 767.041 231.402C764.914 231.877 764.751 233.302 762.46 231.972C761.56 231.497 759.678 224.183 758.369 225.608C758.041 226.463 757.714 227.223 757.387 228.077C757.305 227.887 755.341 224.943 755.914 224.658C756.16 224.753 756.323 224.943 756.487 225.133C754.605 221.998 748.96 209.84 747.732 209.84C752.314 209.84 753.132 208.13 756.978 212.119C759.76 214.969 761.396 218.959 765.16 220.573C768.269 221.903 770.723 219.623 773.423 220.383C777.596 221.523 775.796 223.233 778.987 226.083C783.732 230.262 793.878 227.887 799.278 228.077C804.105 228.267 806.723 228.932 810.651 232.162C813.841 234.822 817.196 236.247 820.387 238.716C817.114 236.152 815.887 242.421 819.487 245.365C826.278 250.875 824.396 241.091 827.751 241.091C827.751 241.091 834.132 267.688 834.46 268.828C836.423 275.477 840.514 301.029 848.778 301.219C848.287 301.219 853.278 294.285 854.014 296.849C852.46 292.1 855.487 284.406 855.814 279.371C856.305 272.057 856.878 269.398 861.132 263.888C864.814 259.044 868.414 253.724 872.505 249.45C877.005 244.796 882.487 243.466 887.232 239.381C888.869 238.621 896.232 254.674 897.214 256.574C897.623 257.524 898.851 257.429 899.26 258.949C899.832 260.849 898.441 263.603 899.178 265.408C900.896 269.683 908.178 269.873 908.178 263.698C908.014 269.778 913.169 274.147 913.823 279.941C913.905 280.606 914.396 288.49 915.132 289.63C914.641 289.535 914.151 289.535 913.741 289.44C913.741 295.235 915.869 305.778 920.287 309.768C920.86 309.768 921.105 309.483 921.023 308.913C922.823 309.198 928.96 333.99 935.423 333.99C933.951 333.99 937.305 331.71 936.896 332.47C938.287 329.906 931.414 313.568 930.187 311.668C927.896 308.248 924.051 306.728 922.251 302.739C921.187 300.459 922.005 295.805 920.369 294.095C920.123 294.855 919.796 295.52 919.387 296.185C918.978 296.375 917.751 277.852 921.351 278.802C921.023 278.707 926.505 284.786 927.487 285.736C927.978 286.211 933.623 293.24 933.296 293.43C933.623 292.86 933.787 292.29 933.869 291.625C937.796 290.01 933.214 300.459 938.941 298.464C946.305 295.9 951.378 282.981 949.005 275.287C946.632 267.403 935.751 261.229 936.323 253.06C936.569 249.545 939.596 244.321 942.951 244.511C946.305 244.701 945.896 249.83 948.76 250.02C947.123 250.02 952.932 243.941 953.178 243.751C951.787 244.985 962.505 240.616 958.578 239.286C966.514 241.946 974.696 231.972 976.741 224.088C977.151 222.663 978.46 207.75 979.114 205.755C978.214 206.515 973.714 209.27 974.86 206.325C974.696 206.705 978.296 199.486 975.841 199.676C974.451 197.491 970.605 193.501 970.278 193.122C966.76 188.847 964.469 186.662 967.496 180.963C969.951 176.403 973.305 176.593 966.105 175.359C962.587 174.694 956.205 176.213 954.405 170.324C954.487 170.609 959.887 163.39 960.623 163.295C963.896 162.915 963.323 167.569 963.814 170.609C963.16 166.24 971.751 167.664 973.632 168.899C976.496 170.704 976.087 172.604 978.132 175.169C980.26 177.733 982.06 176.213 983.696 180.013C985.496 184.098 984.76 194.071 991.551 188.087C998.996 181.533 988.114 175.834 985.169 171.464C982.878 168.044 982.96 168.519 983.696 164.245C983.778 163.865 985.823 157.976 985.987 157.691C988.851 152.561 991.06 155.031 995.069 150.471C1000.06 144.772 999.978 136.793 998.996 129.289C998.669 126.914 997.441 115.8 994.987 115.8C1001.53 115.8 1007.91 136.318 1012.09 141.258C1010.61 134.798 1015.36 139.738 1015.44 139.453C1015.44 136.698 1008.24 130.619 1007.18 127.484C1006.69 126.154 1012.91 128.434 1012.91 128.719C1012.91 125.109 1005.54 120.17 1003.5 118.175C1000.06 114.851 992.941 110.576 990.732 106.112C990.814 106.207 992.532 110.006 993.514 112.286C990.978 109.911 982.96 107.061 982.96 107.061C979.032 105.922 981.569 108.771 977.969 105.732C976.66 104.687 975.432 98.8924 973.141 102.882C974.696 100.127 976.087 104.687 976.496 106.397C975.432 102.692 971.014 106.682 970.932 100.602C970.851 95.2828 976.087 87.8737 979.769 86.2589C984.432 84.1691 992.451 85.119 997.196 85.8789C999.896 86.2589 1001.12 87.3037 1004.07 87.0188C1004.72 86.9238 1008.32 85.214 1008.81 85.6889C1006.77 83.3142 1003.58 83.1242 1005.13 79.0397C1006.61 74.9552 1011.11 76.38 1013.89 77.2349C1015.93 77.8049 1018.14 82.0794 1020.27 78.1848C1020.76 77.3299 1019.21 73.0554 1018.39 73.7203C1021.5 71.4406 1022.31 83.6942 1021.82 85.309C1020.19 90.2484 1017.9 89.9634 1019.21 95.4728C1021.58 105.732 1034.1 113.711 1040.72 119.885C1041.05 119.315 1041.21 108.866 1042.69 110.196C1041.95 109.246 1040.31 107.631 1040.56 106.871C1041.46 106.302 1042.36 105.827 1043.26 105.352C1044.08 102.787 1038.11 101.552 1038.92 98.7024C1039.82 98.6074 1040.64 98.7024 1041.54 98.9874C1041.62 98.8924 1028.61 87.2088 1028.94 84.929C1029.68 80.3696 1042.36 83.6942 1045.63 83.5992C1045.96 83.5992 1048.17 77.8998 1048.82 77.1399C1049.97 75.9051 1058.31 72.6754 1058.4 72.8654C1057.33 69.5408 1051.36 69.3508 1049.31 66.9761C1049.4 67.0711 1047.51 60.4219 1046.29 59.7569C1049.81 59.472 1067.89 68.4009 1070.59 66.4062C1071.08 65.9312 1067.48 62.5116 1067.48 62.4166Z" fill="#2F6FED" fill-opacity="0.06"/>
<path d="M1042.69 109.915C1042.85 110.105 1042.93 110.295 1043.01 110.389C1042.93 110.105 1042.85 110.01 1042.69 109.915Z" fill="#2F6FED" fill-opacity="0.06"/>
<path d="M773.584 34.492C773.993 34.0171 774.566 33.9221 775.057 34.1121C774.73 33.6371 774.239 33.7321 773.584 34.492Z" fill="#2F6FED" fill-opacity="0.06"/>
<path d="M729.65 263.225C729.405 263.985 729.895 264.08 730.386 263.89C730.059 263.32 729.814 263.035 729.65 263.225Z" fill="#2F6FED" fill-opacity="0.06"/>
<path d="M731.371 262.941C731.371 262.941 731.453 262.941 731.535 263.036C731.535 262.941 731.453 262.941 731.371 262.941Z" fill="#2F6FED" fill-opacity="0.06"/>
<path d="M920.613 32.4002C920.286 32.8752 919.877 33.2551 919.386 33.7301C920.041 35.1549 927.241 34.6799 928.55 34.49C927.895 34.585 917.422 29.2656 917.422 30.6904C917.422 32.7802 920.122 31.0704 920.613 32.4002Z" fill="#2F6FED" fill-opacity="0.06"/>
<path d="M1028.53 145.818C1026.9 145.248 1027.06 149.238 1026.33 149.333C1026.08 148.478 1025.83 147.623 1025.51 146.768C1024.77 146.578 1013.56 144.108 1012.01 142.874C1012.83 144.203 1016.34 150.473 1015.61 151.233C1014.71 151.233 1013.81 151.233 1012.99 151.138C1008.24 155.887 1019.86 159.687 1018.55 157.597C1017.41 156.742 1016.34 155.982 1015.2 155.127C1015.2 153.702 1022.64 156.932 1023.95 157.217C1022.73 156.837 1028.78 150.948 1028.78 151.423C1028.94 150.568 1029.52 146.198 1028.53 145.818Z" fill="#2F6FED" fill-opacity="0.06"/>
<path d="M1011.92 142.586C1011.92 142.681 1012.01 142.776 1012.09 142.871C1011.92 142.681 1011.92 142.586 1011.92 142.586Z" fill="#2F6FED" fill-opacity="0.06"/>
<path d="M1027.22 172.512C1027.22 167.668 1018.31 159.024 1018.31 159.403C1018.31 164.343 1021.66 170.232 1019.37 175.077C1018.55 176.881 1016.1 178.211 1014.95 177.641C1015.03 177.831 1015.03 177.926 1015.11 178.116C1015.03 177.736 1014.13 183.721 1013.97 183.816C1012.82 186 1007.75 184.671 1005.95 185.43C1002.02 187.045 1000.55 190.94 997.769 194.169C999.814 195.879 1001.21 203.383 1004.31 202.528C1005.87 202.149 1007.42 195.689 1006.69 194.359C1007.59 195.214 1008.49 195.974 1009.47 196.639C1010.45 196.924 1012.91 190.465 1013.48 189.99C1014.54 189.42 1017 193.22 1018.47 191.51C1020.02 189.705 1017.81 190.085 1017.81 187.805C1017.81 188.945 1022.81 188.945 1023.38 186.095C1023.71 186.57 1024.28 188.755 1025.1 188.47C1025.18 187.615 1025.42 186.665 1025.75 185.81C1032.46 184.101 1025.51 179.636 1025.51 173.082C1026.08 172.797 1026.65 172.512 1027.22 172.512ZM1006.11 189.99C1006.11 189.99 1006.03 190.275 1005.79 190.845C1005.79 190.75 1006.11 190.085 1006.11 189.99ZM1004.97 193.695C1004.07 192.84 1003.17 192.08 1002.19 191.51C1001.94 191.51 1007.18 190.37 1007.01 191.13C1006.77 192.365 1006.11 193.22 1004.97 193.695ZM1007.83 190.275C1008.98 188.85 1009.55 188.755 1009.47 189.99C1009.06 190.845 1008.49 190.94 1007.83 190.275ZM1010.7 188.47C1011.43 187.52 1012.09 187.52 1012.66 188.565C1013.4 190.94 1010.37 188.85 1010.7 188.47Z" fill="#2F6FED" fill-opacity="0.06"/>
<path d="M1014.95 177.545C1014.71 176.88 1014.54 176.31 1014.38 175.55C1014.21 176.69 1014.46 177.26 1014.95 177.545Z" fill="#2F6FED" fill-opacity="0.06"/>
<path d="M704.614 183.719C704.287 182.959 703.796 183.054 703.141 184.004C702.65 184.479 695.696 185.334 697.987 187.709C700.278 190.178 703.632 186.189 704.614 183.719Z" fill="#2F6FED" fill-opacity="0.06"/>
<path d="M986.148 273.295C985.902 273.485 986.639 277.759 986.72 277.664C986.639 278.424 985.902 278.044 985.248 277.474C986.311 279.659 986.557 284.978 988.848 284.029C990.893 283.174 987.702 279.374 987.866 278.234C988.439 277.474 989.257 277.189 990.157 277.284C989.42 276.999 991.793 281.179 992.939 279.849C992.857 278.994 992.693 278.139 992.53 277.379C992.857 277.569 993.511 278.614 994.248 279.754C994.166 279.659 994.002 279.564 993.92 279.564C994.166 279.564 995.148 286.118 996.866 286.403C1001.04 287.068 995.72 278.234 996.048 277.949C996.702 278.329 997.439 278.424 998.175 278.139C998.584 276.999 998.339 276.24 997.357 275.67C997.52 275.67 989.502 275.67 989.093 274.435C988.602 273.105 991.22 273.96 991.139 273.2C991.057 271.775 989.175 269.97 989.011 268.26C988.848 266.551 990.32 264.746 989.993 262.371C989.666 259.711 985.902 252.682 983.366 256.957C982.875 257.907 981.811 267.69 981.975 266.171C981.484 271.585 985.575 273.01 986.148 273.295ZM995.966 282.414C995.557 282.319 995.148 281.369 994.82 280.704C995.393 281.654 995.802 282.414 995.966 282.414Z" fill="#2F6FED" fill-opacity="0.06"/>
<path d="M984.351 276.618C984.351 276.618 984.842 277.093 985.333 277.473C985.087 276.998 984.76 276.618 984.351 276.618Z" fill="#2F6FED" fill-opacity="0.06"/>
<path d="M1004.15 289.344C1003.91 287.73 998.262 278.801 998.262 283.17C999.08 284.405 999.816 285.64 1000.55 286.97C999.98 286.875 999.407 286.685 998.916 286.305C998.016 288.015 1004.23 297.323 1002.76 297.418C1002.11 297.133 1001.45 296.849 1000.8 296.564C1000.72 296.564 999.98 300.173 999.653 300.268C999.325 300.458 996.625 299.793 997.034 299.508C995.725 300.553 991.798 307.487 992.78 306.917C993.271 306.632 994.334 303.498 994.743 303.498C995.725 303.688 999.325 304.163 998.18 303.403C1000.8 304.923 999.653 314.611 1003.66 313.757C1006.2 313.187 1003.01 306.822 1004.73 306.537C1005.05 306.537 1006.61 309.577 1006.61 309.672C1008.9 306.537 1007.26 292.574 1003.33 291.624C1003.09 292.194 1002.76 292.669 1002.27 293.049C1002.03 293.049 1001.86 289.249 1001.78 289.344C1002.27 288.394 1003.66 289.629 1004.15 289.344Z" fill="#2F6FED" fill-opacity="0.06"/>
<path d="M997.524 289.632C997.606 289.252 997.688 289.062 997.524 289.632V289.632Z" fill="#2F6FED" fill-opacity="0.06"/>
<path d="M990.65 285.548C990.65 286.308 991.222 291.437 991.386 291.817C991.222 291.532 994.577 290.962 994.413 292.197C994.413 292.102 993.186 299.511 995.722 297.896C996.295 296.757 996.868 295.617 997.441 294.572C1001.04 294.572 999.65 291.152 997.441 289.727C997.359 289.822 997.359 290.012 997.277 290.202C997.277 290.202 997.359 289.917 997.441 289.727C996.868 289.347 996.295 289.157 995.722 289.157C996.704 288.967 990.65 282.888 990.65 285.548ZM997.686 293.527C997.686 293.527 998.422 291.722 997.686 293.527V293.527ZM996.295 293.717C996.295 293.717 996.213 294.002 995.968 294.572C996.05 294.572 996.295 293.812 996.295 293.717Z" fill="#2F6FED" fill-opacity="0.06"/>
<path d="M976.987 301.03C976.578 300.555 985.251 292.006 985.415 291.151C985.415 291.246 984.678 287.732 984.678 287.542C983.697 286.687 983.042 287.162 982.715 288.967C982.306 291.246 976.251 300.27 976.987 301.03Z" fill="#2F6FED" fill-opacity="0.06"/>
<path d="M855.487 294.569C854.915 295.614 854.669 307.962 856.387 309.672C867.187 320.691 858.597 288.205 855.487 294.569Z" fill="#2F6FED" fill-opacity="0.06"/>
<path d="M950.889 333.705C950.807 336.175 954.98 346.148 956.371 347.668C958.171 349.663 960.053 348.618 962.18 349.568C964.307 350.423 966.271 352.418 968.153 353.083C969.625 353.652 972.489 354.222 974.371 353.653C974.78 353.558 976.989 342.729 977.316 341.494C978.134 338.644 983.453 333.8 983.616 332.28C984.025 328.86 979.689 327.436 979.525 324.301C979.28 320.311 981.653 320.311 982.716 317.082C982.144 316.512 981.489 316.037 980.834 315.657C980.753 314.802 984.271 315.087 984.189 313.662C984.189 312.617 974.78 305.778 976.253 304.733C973.389 307.393 972.489 313.092 969.871 316.227C966.844 319.931 962.18 324.111 958.171 326.201C958.907 325.821 955.144 329.05 955.553 328.67C953.344 330.95 951.053 327.056 950.889 333.705Z" fill="#2F6FED" fill-opacity="0.06"/>
<path d="M983.122 370.943C981.813 368.474 973.549 373.033 972.158 373.413C973.058 372.938 963.486 367.049 963.077 367.809C963.24 366.764 967.577 367.429 967.086 365.909C966.104 362.489 949.413 363.819 947.04 363.059C944.586 362.299 941.395 361.255 940.413 358.12C938.531 351.851 945.077 351.851 945.077 348.051C945.077 348.146 939.431 341.117 938.613 343.302C936.24 340.072 932.313 334.753 932.067 334.278C929.695 330.383 926.831 327.628 923.722 324.589C922.086 322.974 908.177 308.251 906.131 312.145C904.495 315.185 920.449 335.797 921.513 337.887C924.213 343.207 926.095 349.191 929.858 353.75C931.167 355.365 940.249 361.444 939.431 364.104C939.022 365.529 938.695 363.534 938.367 363.534C938.122 363.914 938.04 364.389 938.04 364.864C937.222 370.088 967.004 371.798 968.967 372.368C969.622 372.938 969.949 373.603 969.949 374.458C971.913 374.743 978.049 375.123 979.358 373.698C979.031 374.078 1002.43 371.133 1002.51 371.228C997.195 367.999 986.149 376.263 983.122 370.943Z" fill="#2F6FED" fill-opacity="0.06"/>
<path d="M832.744 319.554C832.744 320.979 834.053 322.879 834.053 324.208C833.48 324.968 833.317 325.823 833.726 326.773C836.344 329.148 832.744 316.419 832.744 319.554Z" fill="#2F6FED" fill-opacity="0.06"/>
<path d="M1015.12 329.243C1015.2 329.148 1015.28 329.148 1015.44 329.053C1015.28 329.053 1015.2 329.148 1015.12 329.243Z" fill="#2F6FED" fill-opacity="0.06"/>
<path d="M1012.98 335.32C1013.88 335.035 1014.87 334.94 1015.85 335.225C1015.44 334.655 1014.46 330.095 1015.11 329.145C1014.54 329.525 1013.97 329.905 1013.31 330.095C1012.9 329.525 1013.48 324.206 1011.92 327.721C1011.18 329.24 1010.53 333.515 1011.02 335.415C1011.43 335.7 1011.76 335.605 1011.84 335.035C1013.72 337.694 1008.57 336.365 1009.79 338.834C1010.04 339.309 1014.05 339.879 1014.05 339.974C1013.64 338.549 1013.31 336.934 1012.98 335.32Z" fill="#2F6FED" fill-opacity="0.06"/>
<path d="M990.239 333.895C993.348 332.565 996.948 336.46 1000.06 334.75C1001.69 333.895 1002.27 330.096 1003 328.956C1002.51 329.431 1002.02 330.001 1001.53 330.476C997.439 335.415 991.303 328.291 986.967 334.085C983.694 338.36 983.612 346.814 983.612 352.133C983.612 373.316 988.848 348.429 989.912 348.144C990.321 348.049 990.648 353.558 991.139 354.223C993.43 357.358 991.958 355.173 994.903 355.173C994.085 355.173 995.148 358.972 996.212 358.877C998.83 358.592 995.23 351.468 994.903 350.423C994.167 347.574 993.267 347.479 994.003 344.154C993.921 344.439 999.321 340.07 997.685 339.31C995.394 338.36 992.448 341.399 990.158 340.639C986.476 339.405 986.23 335.605 990.239 333.895Z" fill="#2F6FED" fill-opacity="0.06"/>
<path d="M1003.01 328.956C1003.09 328.861 1003.25 328.766 1003.33 328.671C1003.17 328.671 1003.09 328.861 1003.01 328.956Z" fill="#2F6FED" fill-opacity="0.06"/>
<path d="M1014.62 348.237C1015.03 348.142 1010.2 349.947 1011.19 350.517C1012.82 351.372 1020.02 354.126 1021.58 352.702C1023.05 351.372 1015.6 348.047 1014.62 348.237Z" fill="#2F6FED" fill-opacity="0.06"/>
<path d="M1008 371.702C1008.49 371.132 992.369 377.971 996.132 380.63C998.751 382.53 1007.1 373.791 1008.57 371.227C1008.57 371.227 1007.91 371.796 1008 371.702Z" fill="#2F6FED" fill-opacity="0.06"/>
</svg>
